<svg width="124" height="99" viewBox="0 0 124 99" fill="none" xmlns="http://www.w3.org/2000/svg">
<path d="M57.9465 70.0978C57.9535 70.095 57.9615 70.0925 57.9688 70.0898C57.9526 70.0875 57.9363 70.0846 57.92 70.0825L57.9465 70.0978Z" fill="#020202"/>
<path d="M30.6383 48.2133C30.6343 48.1985 30.631 48.1834 30.6269 48.1687L30.5839 48.146L30.6265 48.201C30.6304 48.2052 30.6344 48.209 30.6383 48.2133Z" fill="#020202"/>
<path d="M53.8114 47.1848C53.5388 47.7729 53.3277 48.2415 53.1223 48.8219C52.8651 49.5431 52.7173 50.056 52.7173 50.5516C52.7066 50.7528 52.738 50.954 52.8094 51.1423C52.8808 51.3306 52.9907 51.5018 53.1319 51.6449C53.237 51.7484 53.3616 51.8298 53.4983 51.8844C53.6351 51.9391 53.7813 51.9658 53.9285 51.9631C54.6694 51.9264 54.9842 51.5523 54.9842 50.7097C54.9842 50.1929 54.6368 49.2307 53.8114 47.1848ZM53.8114 47.1848C53.5388 47.7729 53.3277 48.2415 53.1223 48.8219C52.8651 49.5431 52.7173 50.056 52.7173 50.5516C52.7066 50.7528 52.738 50.954 52.8094 51.1423C52.8808 51.3306 52.9907 51.5018 53.1319 51.6449C53.237 51.7484 53.3616 51.8298 53.4983 51.8844C53.6351 51.9391 53.7813 51.9658 53.9285 51.9631C54.6694 51.9264 54.9842 51.5523 54.9842 50.7097C54.9842 50.1929 54.6368 49.2307 53.8114 47.1848ZM53.8114 47.1848C53.5388 47.7729 53.3277 48.2415 53.1223 48.8219C52.8651 49.5431 52.7173 50.056 52.7173 50.5516C52.7066 50.7528 52.738 50.954 52.8094 51.1423C52.8808 51.3306 52.9907 51.5018 53.1319 51.6449C53.237 51.7484 53.3616 51.8298 53.4983 51.8844C53.6351 51.9391 53.7813 51.9658 53.9285 51.9631C54.6694 51.9264 54.9842 51.5523 54.9842 50.7097C54.9842 50.1929 54.6368 49.2307 53.8114 47.1848ZM73.1331 28.5325C70.8575 28.5296 68.6189 29.111 66.6299 30.2217V45.6055L73.6245 28.5363C73.4633 28.5325 73.2963 28.5325 73.1331 28.5325ZM59.687 42.042C59.69 43.8827 60.0671 45.7033 60.7953 47.3923C61.5234 49.0814 62.5872 50.6033 63.9214 51.8647C64.1364 51.6333 64.3322 51.2187 64.5798 50.6094V50.6075L64.67 50.3877V31.5522C63.1134 32.8167 61.858 34.4151 60.9958 36.2301C60.1336 38.0451 59.6864 40.0309 59.687 42.042ZM53.8114 47.1848C53.5388 47.7729 53.3277 48.2415 53.1223 48.8219C52.8651 49.5431 52.7173 50.056 52.7173 50.5516C52.7066 50.7528 52.738 50.954 52.8094 51.1423C52.8809 51.3306 52.9907 51.5018 53.1319 51.6449C53.237 51.7484 53.3616 51.8298 53.4983 51.8844C53.6351 51.9391 53.7813 51.9658 53.9285 51.9631C54.6694 51.9264 54.9842 51.5523 54.9842 50.7097C54.9842 50.1929 54.6368 49.2307 53.8114 47.1848L53.8114 47.1848ZM53.8114 47.1848C53.5388 47.7729 53.3277 48.2415 53.1223 48.8219C52.8651 49.5431 52.7173 50.056 52.7173 50.5516C52.7066 50.7528 52.738 50.954 52.8094 51.1423C52.8809 51.3306 52.9907 51.5018 53.1319 51.6449C53.237 51.7484 53.3616 51.8298 53.4983 51.8844C53.6351 51.9391 53.7813 51.9658 53.9285 51.9631C54.6694 51.9264 54.9842 51.5523 54.9842 50.7097C54.9842 50.1929 54.6368 49.2307 53.8114 47.1848L53.8114 47.1848ZM59.687 42.042C59.69 43.8827 60.0671 45.7033 60.7953 47.3923C61.5234 49.0814 62.5872 50.6033 63.9214 51.8647C64.1364 51.6333 64.3322 51.2187 64.5798 50.6094V50.6075L64.67 50.3877V31.5522C63.1134 32.8167 61.858 34.4151 60.9958 36.2301C60.1336 38.0451 59.6864 40.0309 59.687 42.042ZM73.1331 28.5325C70.8575 28.5296 68.6189 29.111 66.6299 30.2217V45.6055L73.6245 28.5363C73.4633 28.5325 73.2963 28.5325 73.1331 28.5325ZM78.2908 18.8216L74.5517 27.9598C78.2825 28.3311 81.7185 30.1609 84.1185 33.0543L78.2908 18.8216ZM53.8114 47.1848C53.5388 47.7729 53.3277 48.2415 53.1223 48.8219C52.8651 49.5431 52.7173 50.056 52.7173 50.5516C52.7066 50.7528 52.738 50.954 52.8094 51.1423C52.8808 51.3306 52.9907 51.5018 53.1319 51.6449C53.237 51.7484 53.3616 51.8298 53.4983 51.8844C53.6351 51.9391 53.7813 51.9658 53.9285 51.9631C54.6694 51.9264 54.9842 51.5523 54.9842 50.7097C54.9842 50.1929 54.6368 49.2307 53.8114 47.1848V47.1848ZM59.687 42.042C59.69 43.8827 60.0671 45.7033 60.7953 47.3923C61.5234 49.0814 62.5872 50.6033 63.9214 51.8647C64.1364 51.6333 64.3322 51.2187 64.5798 50.6094V50.6075L64.67 50.3877V31.5522C63.1134 32.8167 61.858 34.4151 60.9958 36.2301C60.1336 38.0451 59.6864 40.0309 59.687 42.042H59.687ZM73.1331 28.5325C70.8575 28.5296 68.6189 29.111 66.6299 30.2217V45.6055L73.6245 28.5363C73.4633 28.5325 73.2963 28.5325 73.1331 28.5325ZM78.2908 18.8216L74.5517 27.9598C78.2825 28.3311 81.7185 30.1609 84.1185 33.0543L78.2908 18.8216ZM53.8114 47.1848C53.5388 47.7729 53.3277 48.2415 53.1223 48.8219C52.8651 49.5431 52.7173 50.056 52.7173 50.5516C52.7066 50.7528 52.738 50.954 52.8094 51.1423C52.8808 51.3306 52.9907 51.5018 53.1319 51.6449C53.237 51.7484 53.3616 51.8298 53.4983 51.8844C53.6351 51.9391 53.7813 51.9658 53.9285 51.9631C54.6694 51.9264 54.9842 51.5523 54.9842 50.7097C54.9842 50.1929 54.6368 49.2307 53.8114 47.1848V47.1848ZM59.687 42.042C59.69 43.8827 60.0671 45.7033 60.7953 47.3923C61.5234 49.0814 62.5872 50.6033 63.9214 51.8647C64.1364 51.6333 64.3322 51.2187 64.5798 50.6094V50.6075L64.67 50.3877V31.5522C63.1134 32.8167 61.858 34.4151 60.9958 36.2301C60.1336 38.0451 59.6864 40.0309 59.687 42.042H59.687ZM73.1331 28.5325C70.8575 28.5296 68.6189 29.111 66.6299 30.2217V45.6055L73.6245 28.5363C73.4633 28.5325 73.2963 28.5325 73.1331 28.5325ZM78.2908 18.8216L74.5517 27.9598C78.2825 28.3311 81.7185 30.1609 84.1185 33.0543L78.2908 18.8216ZM90.8655 49.0841C90.8521 49.1825 90.8348 49.2808 90.8214 49.3772L90.9519 49.6954C90.9973 49.6679 91.0386 49.6341 91.0747 49.5951L90.8655 49.0841ZM92.2284 47.661C92.1917 47.5496 92.1461 47.4412 92.0921 47.3371L92.2341 47.6842L92.2284 47.661ZM94.7602 33.5595C94.6316 33.6 94.5567 33.7408 94.5452 34.0551C94.5395 34.2074 94.5107 34.352 94.4838 34.5796C94.3779 34.1792 94.3085 33.77 94.2765 33.357C94.2342 32.9579 94.1997 32.5645 94.1709 32.1731C94.146 31.8703 94.1786 31.5599 94.1671 31.2533C94.3514 31.2301 94.5337 31.3439 94.5798 31.8588C94.599 32.0574 94.5855 32.2637 94.6124 32.4565C94.622 32.5356 94.7218 32.6686 94.7372 32.6455C94.7921 32.5537 94.8195 32.4479 94.8158 32.3408L94.7372 31.5387C94.6969 31.2726 94.6508 31.0084 94.597 30.75C94.5011 30.2814 94.3148 30.1754 94.1152 30.2004C93.9655 29.6817 93.764 29.1707 93.6085 28.7157C93.6545 28.2394 93.7851 28.1102 93.9482 28.0118C94.0883 27.9289 94.121 27.6339 94.0327 27.256C93.9597 26.9359 93.8695 26.6196 93.81 26.3959C93.5413 26.0836 93.4338 26.5984 93.2188 26.1375C92.9578 25.5803 93.2438 25.5938 93.2956 25.345C93.3532 24.9881 93.3776 24.6266 93.3685 24.2652C93.3744 24.2721 93.3809 24.2785 93.3877 24.2845C93.382 24.2652 93.3762 24.2459 93.3685 24.2266L93.3647 24.2613C92.8541 23.0889 92.8599 23.0812 92.0978 22.5317C92.1129 22.2782 92.1051 22.024 92.0748 21.7719C91.9901 21.3992 91.8785 21.0331 91.7408 20.6766C91.7163 20.613 91.6875 20.5511 91.6544 20.4915C91.5262 20.2582 91.4244 20.0111 91.3511 19.7549C91.2824 19.5372 91.2462 19.3104 91.2436 19.082C91.2391 18.9391 91.2032 18.7989 91.1385 18.6716C91.0738 18.5442 90.9819 18.4328 90.8693 18.3454C90.9403 18.7734 90.9595 19.1244 90.7023 19.1533C90.6204 19.1711 90.5419 19.2024 90.4701 19.2459C90.2109 18.596 89.9172 17.9655 89.5986 17.3349C89.4332 17.0414 89.3312 16.7162 89.2991 16.3804C89.2375 16.1473 89.1276 15.9298 88.9767 15.7422C88.7526 15.4639 88.5068 15.204 88.2415 14.9651L88.2338 14.9419L88.0381 14.0877C88.0323 14.0838 88.0266 14.0819 88.0208 14.078C87.6981 13.4226 87.2657 12.8278 86.7424 12.3195C86.4052 12.2871 86.0778 12.1881 85.7788 12.0283C85.5312 11.8759 85.2989 11.6176 84.8555 11.1798L84.0839 10.4047L83.2777 9.66613L82.8727 9.29976L82.4523 8.95074L81.6096 8.25463C80.4613 7.35755 79.2579 6.53383 78.0067 5.78835C77.7206 5.61266 77.4208 5.46048 77.1103 5.33328C77.0316 5.29857 76.9491 5.3352 76.8685 5.34099C77.3182 5.86298 77.8773 6.27851 78.5058 6.55774C78.9748 6.79995 79.431 7.06641 79.8725 7.35605C80.2149 7.56932 80.5301 7.82381 80.8111 8.11386C81.0638 8.36481 81.2762 8.65363 81.4407 8.97002C81.0207 8.68542 80.5863 8.42283 80.1393 8.18328C79.554 7.89548 79.0044 7.53952 78.502 7.12272C77.8329 6.60856 77.1139 6.16345 76.356 5.79414C75.8415 5.49718 75.3079 5.233 74.78 4.96304C73.7904 4.44744 72.7631 4.00845 71.7069 3.64988C70.6474 3.29315 69.5666 3.03669 68.4764 2.75323C67.841 2.58547 67.2095 2.46784 66.5703 2.29623C65.8007 2.15419 65.0231 2.06017 64.2419 2.0147L63.3552 1.91828L62.4645 1.86236C61.8731 1.82089 61.2794 1.82669 60.6889 1.87972C60.4509 1.90286 60.1803 1.84115 59.925 1.84501C59.1668 1.83537 58.8865 1.54805 58.4412 1.35522C56.8039 1.46899 56.704 1.4902 56.6023 1.6194C56.8845 1.7216 57.5275 1.62711 57.5985 1.93564C56.9669 1.99657 56.3315 2.00689 55.6982 1.96649L55.727 1.97613C55.3267 1.89701 54.915 1.89505 54.5139 1.97035C54.0973 2.03367 53.6855 2.1258 53.2816 2.24609C52.5329 2.4717 51.794 2.68574 51.0492 2.93449C50.7607 3.03639 50.4813 3.16283 50.2142 3.31243C49.9146 3.48647 49.5593 3.53628 49.2237 3.45127C49.5193 3.26423 49.8034 3.08297 50.0856 2.90364C49.9212 2.89557 49.7564 2.9105 49.5961 2.94799C49.1642 3.10996 48.7535 3.31629 48.3292 3.48019C47.7108 3.69865 47.118 3.98445 46.5614 4.3325C46.1583 4.61595 45.6554 4.83963 45.2158 5.11731C44.9509 5.29085 44.6538 5.4089 44.3424 5.4644C44.1966 5.48947 44.089 5.44319 43.9029 5.61866C43.4047 6.09774 42.8736 6.54105 42.3135 6.94532C41.7569 7.3869 41.1618 7.7957 40.6359 8.26427C40.2405 8.594 39.8355 8.93145 39.4285 9.27083C39.0216 9.60828 38.5974 9.92452 38.2 10.2485C37.8641 10.5184 37.5263 10.771 37.223 11.0564C36.9168 11.3449 36.6314 11.6549 36.3688 11.9839C36.1826 12.2173 35.9446 12.4525 35.7258 12.6858C35.8812 12.7552 36.0367 12.8285 36.2383 12.9211C35.5031 13.4494 34.8927 14.0877 34.2266 14.5736C34.138 14.6441 34.0668 14.7342 34.0186 14.8369C33.9703 14.9396 33.9462 15.0521 33.9483 15.1656C33.9617 15.2736 33.9848 15.37 34.004 15.4703C33.898 15.6462 33.7806 15.815 33.6527 15.9755C33.2921 16.3879 32.9592 16.824 32.6565 17.2809C32.3641 17.7453 32.0963 18.2248 31.8541 18.7175C31.666 19.1244 31.4472 19.5293 31.2399 19.9323C30.9769 20.4491 30.7465 20.9852 30.5009 21.5097C30.2724 22.0438 30.0671 22.5856 29.8751 23.1256C29.2302 25.0673 28.8616 27.0438 28.4451 29.0512C28.4179 29.2748 28.4205 29.5012 28.4527 29.7241C28.5172 29.5674 28.5605 29.4027 28.5813 29.2344C28.6101 29.0512 28.6389 28.8661 28.6677 28.679C28.7925 27.9906 28.8904 27.873 29.3587 27.7843C29.2666 28.1834 29.1706 28.5787 29.0996 28.974C29.0286 29.3404 29.0324 29.7145 28.9921 30.0847C28.9518 30.4974 28.7963 30.9679 29.0132 31.2687C29.1629 30.7037 29.4375 30.1908 29.3146 29.5525C29.3054 29.437 29.3273 29.3211 29.378 29.217C29.6505 28.8024 29.7292 28.2567 29.9269 27.5799C29.9461 28.1295 30.0076 28.5402 30.0421 28.9413L30.0363 28.9393C29.902 29.2749 29.783 29.5853 29.9768 29.8476C30.1899 30.1426 30.1899 30.2004 29.9404 30.5379C29.8066 30.697 29.7184 30.8896 29.6851 31.0952L29.495 32.5279C29.4355 33.1391 29.1226 33.3435 28.9672 33.8179C28.8206 34.2884 28.8472 34.7962 29.042 35.2487C29.0919 35.0211 29.113 34.7088 29.1918 34.6123C29.351 34.4176 29.5046 34.1881 29.6697 33.9895C29.824 33.7932 30.0236 33.6376 30.2513 33.5364C30.2494 33.8873 30.2628 34.1669 30.282 34.4484L30.2686 34.4157V34.4446C30.1906 34.4222 30.1098 34.4112 30.0286 34.4118C29.9231 34.4234 29.8463 34.6104 29.8923 34.7261C29.925 34.8052 29.9787 34.8939 30.0248 34.8919C30.1088 34.875 30.1889 34.8423 30.2609 34.7955V34.8225L30.2743 34.7878C30.369 35.334 30.4248 35.8862 30.4413 36.4404V36.4635C30.4452 36.6505 30.4452 36.8376 30.4356 37.0304C30.4375 37.3736 30.4586 37.7285 30.4893 38.0755C30.6333 39.4176 30.7984 40.7366 30.8866 42.0767C31.0786 42.4431 31.261 42.7979 31.4683 43.1392C31.7024 43.9935 31.9673 44.8419 32.2802 45.6865C32.4127 46.0432 32.5566 46.3903 32.7006 46.7374C32.6929 46.722 32.6852 46.7085 32.6776 46.693C32.5108 46.3343 32.2415 46.0336 31.904 45.8292C31.8522 46.0991 31.998 46.3807 32.1075 46.641L32.3973 47.2947L32.7159 47.931C32.7563 48.0139 32.7716 48.1875 32.7409 48.2125C32.7087 48.2448 32.666 48.2645 32.6206 48.2681C32.5753 48.2716 32.5301 48.2587 32.4933 48.2318C32.334 48.0846 32.2009 47.9112 32.0998 47.7189C31.949 47.3919 31.8188 47.0557 31.7101 46.7123C31.6122 46.4501 31.4913 46.3749 31.2667 46.4617C31.4971 47.0228 31.7044 47.5974 31.9751 48.1431L32.3474 48.9337C32.4741 49.194 32.62 49.4466 32.7544 49.705L33.169 50.4725L33.6143 51.2226C33.7909 51.5292 33.9195 51.8647 34.0865 52.1771C34.1018 52.2079 34.0808 52.2658 34.0558 52.2716C34.0335 52.2712 34.0116 52.2658 33.9917 52.2558C33.9717 52.2458 33.9543 52.2314 33.9406 52.2137C33.7698 51.9669 33.6181 51.7085 33.4703 51.4443C32.9655 50.5978 32.5106 49.7436 31.8906 49.1111C31.6583 49.1478 31.476 49.2461 31.1708 48.8103C31.0062 48.6001 30.8286 48.4004 30.6391 48.2125C30.6959 48.495 30.7755 48.7723 30.8771 49.0417C31.633 50.741 32.5173 52.3797 33.5222 53.9434C34.5444 55.5104 35.7268 56.9658 37.0502 58.2859C37.4533 58.7005 37.8929 59.0977 38.2806 59.5123C39.0724 60.3615 39.9751 61.099 40.9641 61.7047C41.7549 62.1791 42.396 62.7846 43.0564 63.3322C43.2944 63.5347 43.5113 63.822 43.4268 64.0033C43.0314 63.9975 42.3596 63.311 42.062 63.6542C42.6974 64.038 43.3078 64.439 43.9585 64.7669C46.2487 65.984 48.6712 66.9313 51.1778 67.5899L52.4274 67.9235C52.8478 68.0276 53.2681 68.1298 53.6846 68.2339C54.0359 68.3265 54.4409 68.3997 54.6405 68.5887C54.5676 68.6697 54.5023 68.7391 54.439 68.8105L55.3968 68.9802L56.395 69.1113C56.585 69.1344 56.6464 69.1768 56.5774 69.2482C56.3048 69.3234 55.7654 69.2424 55.7769 69.4835L56.9747 69.6801C57.3758 69.7303 57.777 69.7804 58.1782 69.8305C58.2128 69.8344 58.255 69.9405 58.2166 69.9809C58.1405 70.0316 58.056 70.0682 57.9671 70.0889C58.2828 70.1491 58.6021 70.1884 58.923 70.2066C59.7503 70.222 60.5795 70.1911 61.4049 70.1603C62.7899 70.135 64.1726 70.0366 65.5472 69.8652C65.9484 69.8074 66.3476 69.7226 66.7335 69.6512C66.7139 69.4948 66.7263 69.336 66.7699 69.1846C66.8981 69.0871 67.0498 69.0258 67.2095 69.0072C67.4193 69.026 67.6276 69.0582 67.8333 69.1036C68.2115 69.1479 68.3766 69.0747 68.6299 68.7642C68.982 68.5493 69.3851 68.4334 69.797 68.4287C69.8231 68.3992 69.8536 68.3738 69.8872 68.3535C70.5895 67.9945 71.3374 67.7337 72.11 67.5783C72.235 67.5683 72.3602 67.5965 72.469 67.6593C72.8164 67.802 72.826 67.8039 73.3557 67.3951L73.3596 67.397C73.3634 67.393 73.3666 67.3885 73.3692 67.3835C73.3746 67.3792 73.3804 67.3754 73.3865 67.372H73.3788C73.5688 67.1039 73.7608 66.8475 73.9412 66.5737C74.3174 66.3712 74.59 66.1745 74.4844 65.974C74.4036 65.8587 74.3594 65.7216 74.3577 65.5806C74.3635 65.517 74.5862 65.3704 74.734 65.2798C74.8329 65.2262 74.9441 65.1996 75.0564 65.2027C75.4519 65.355 75.83 65.5015 76.2139 65.65C76.4489 65.4433 76.7119 65.2712 76.9951 65.139C77.4059 64.9153 77.8148 64.682 78.2198 64.4429C78.6286 64.2096 79.0106 63.9338 79.406 63.6774C79.5457 63.5583 79.6742 63.4267 79.7899 63.284C79.1258 63.5405 78.5749 63.768 77.9914 63.9705C77.897 63.9393 77.8057 63.8993 77.7188 63.8509C77.6727 63.8201 77.619 63.741 77.6593 63.7063C77.7919 63.5782 77.941 63.4686 78.1027 63.3804C78.2865 63.3069 78.4826 63.2695 78.6805 63.2705C79.0745 63.2831 79.4606 63.1576 79.7727 62.9157C79.9175 62.7976 80.0828 62.7074 80.2602 62.6496C80.6157 62.5881 80.9529 62.447 81.2468 62.237C81.5574 62.0094 81.8854 61.807 82.2277 61.6315C82.3949 61.5432 82.5404 61.4187 82.6538 61.267C83.0032 60.6924 83.5253 60.5208 83.9802 60.1872C84.0644 59.9324 84.2022 59.6989 84.3844 59.5025C84.5666 59.3062 84.7889 59.1517 85.0359 59.0495C85.1227 58.7586 85.2882 58.4976 85.5139 58.2955C85.7654 58.0314 86.0437 57.7942 86.3259 57.4818C86.226 57.4876 86.1915 57.4683 86.1512 57.4953C85.5608 57.8739 85.0324 58.3423 84.5849 58.8837C84.1014 59.4404 83.5862 59.9684 83.0416 60.4649C82.9026 60.6053 82.7487 60.7301 82.5828 60.837C82.2776 61.0183 81.9494 61.1648 81.6192 61.3287C81.2833 61.4869 80.9436 61.6643 80.5501 61.8282C81.0434 61.3981 81.3851 61.0549 81.7402 60.729C81.7879 60.6855 81.8393 60.6461 81.8937 60.6114C82.1567 60.4398 82.412 60.2585 82.673 60.0811C82.7137 59.8764 82.8269 59.6935 82.9917 59.5663C84.3776 58.2729 85.66 56.8718 86.8269 55.3761C87.5985 54.4023 87.8615 53.9839 87.8423 53.847C87.8173 53.7043 87.4776 53.8181 86.9439 53.8103C86.9632 53.7096 86.9895 53.6104 87.0226 53.5134C87.1724 53.1297 87.0533 53.1104 86.8192 53.2377C86.7213 53.0892 86.395 53.2608 86.4468 52.8597C86.5831 52.6534 86.7328 52.4413 86.8768 52.2195C87.015 51.992 87.157 51.7606 87.301 51.5273C87.5121 51.533 87.6964 51.5408 87.8826 51.5465C88.0492 51.3479 88.2019 51.1379 88.3394 50.9179C88.5717 50.5323 88.564 50.351 88.3126 50.1408C88.4853 49.7532 88.66 49.3637 88.85 48.98C89.0439 48.5982 89.2416 48.2164 89.4067 47.8192C89.4585 47.6977 89.5967 47.6128 89.7003 47.5106C89.6505 47.778 89.574 48.0397 89.4719 48.2916C89.2302 48.71 89.1061 49.1866 89.113 49.6703C89.351 49.2461 89.589 48.8199 89.8232 48.4034C89.8923 48.2781 90.0535 48.1412 90.1188 48.1528C90.1764 48.1643 90.2052 48.4246 90.1706 48.4883C89.8616 49.0359 89.827 49.5488 89.566 50.1601C89.3035 50.417 89.0615 50.6942 88.8423 50.9893C88.7252 51.1474 88.6101 51.3209 88.4968 51.508C88.3778 51.6892 88.2607 51.8879 88.1455 52.1019C88.1455 52.3236 88.1379 52.5994 88.1417 52.8636C88.1455 53.0429 88.349 53.0178 88.4949 52.8481C88.8942 52.3853 89.2013 51.7567 89.6178 51.3518L89.6044 51.4463L89.6466 51.3229L89.6178 51.3421C89.9595 50.5978 90.3587 49.894 90.7388 49.1767L89.495 46.1416C89.4067 46.2765 89.3107 46.4154 89.2032 46.56C89.2781 46.3344 89.3452 46.1261 89.4086 45.9333L85.4775 36.3459C84.4549 34.1807 82.8847 32.3229 80.9236 30.9583C78.9625 29.5936 76.6793 28.7698 74.3021 28.5691L66.6298 47.2773V50.594C66.6298 52.0749 66.7239 52.179 68.079 52.179H68.2307V52.7132H62.4818V52.179H62.6334C62.8544 52.1844 63.0755 52.1773 63.2957 52.1578C61.8437 50.7331 60.7154 49.0099 59.9883 47.1063C59.2611 45.2027 58.9522 43.1637 59.0827 41.1289C59.2133 39.0942 59.7801 37.1119 60.7445 35.3178C61.7089 33.5237 63.048 31.9602 64.67 30.7346V20.1039L55.0821 45.216L55.1474 45.405C56.1762 48.4092 56.4872 49.3155 56.4008 50.619C56.3515 51.1816 56.0976 51.7062 55.6875 52.0925C55.2774 52.4788 54.74 52.6998 54.178 52.7132C53.009 52.7132 52.1932 51.9187 52.0992 50.6923C52.0167 49.6858 52.7039 48.0891 53.4851 46.4L53.1242 45.484L43.5017 20.9466V50.2777C43.5459 52.1347 43.5862 52.1347 44.6227 52.1347H45.1026V52.7132H41.2425V52.1347H41.8663C42.8568 52.1347 42.8568 52.1347 42.8568 50.2777V19.3114L42.5669 18.5941C42.0659 17.3542 41.993 17.3542 40.7664 17.3542H40.6129V16.7622H45.5307V17.3542H45.237C44.9625 17.3542 44.5882 17.3696 44.4961 17.5008C44.3828 17.6608 44.5402 18.1101 44.7763 18.7908L44.88 19.0897L54.7481 44.3463L64.3073 19.1841C64.5875 18.4186 64.6297 17.8845 64.4282 17.5952C64.2919 17.3966 64.0193 17.2964 63.622 17.2964H63.0557V16.7622H68.2307V17.2964H68.0791C66.8295 17.2964 66.6299 17.4043 66.6299 18.8814V29.487C68.6363 28.4309 70.868 27.8803 73.1332 27.8826C73.3808 27.8826 73.6265 27.8942 73.8779 27.9077L77.9549 17.977L77.4482 16.7622H79.5769L79.6153 16.8567L90.9807 44.6201C90.9807 44.6221 90.9807 44.624 90.9826 44.624C91.0326 44.6934 91.0844 44.7628 91.1381 44.8303C91.1733 44.7369 91.2034 44.6416 91.2284 44.5449C91.2475 44.4717 91.4357 44.3136 91.4951 44.3386C91.5585 44.3637 91.5777 44.5469 91.5854 44.6915C91.5823 44.814 91.5569 44.9349 91.5105 45.0482L91.4414 45.2218C91.7562 45.6132 92.0844 45.9931 92.43 46.3575C92.4645 46.373 92.4952 46.4057 92.5336 46.4096C93.0288 46.4597 93.3225 45.9796 93.4204 45.0019C93.4267 44.8545 93.4151 44.7069 93.3859 44.5623C93.526 44.3097 93.6661 44.0571 93.8177 43.7794C93.6028 43.5789 93.2841 43.8296 93.1997 43.3475C93.3456 42.7941 93.3974 42.2136 93.4972 41.6429C93.5627 41.0594 93.6928 40.4851 93.8849 39.9306C93.9085 39.8021 93.9194 39.6716 93.9175 39.541C93.9905 38.8777 94.0711 38.2144 94.1153 37.5511C94.1507 37.1974 94.1128 36.8403 94.0039 36.5021H94.0058C94.1037 36.2379 94.2285 36.1434 94.3725 36.1665C94.3916 36.4789 94.382 36.8048 94.4108 37.0921C94.4243 37.2155 94.5471 37.3235 94.6201 37.3042C94.6892 37.2869 94.8005 37.1037 94.8197 36.961C94.9384 35.9625 95.005 34.9584 95.0193 33.9529C95.0251 33.6848 94.908 33.5152 94.7602 33.5595L94.7602 33.5595ZM30.2034 28.9567L30.0556 28.9413C30.094 28.8179 30.1151 28.6405 30.2111 28.6887C30.2205 28.778 30.2179 28.8681 30.2034 28.9567ZM33.2477 49.383L33.2919 49.3772L33.3111 49.4717L33.2477 49.383ZM35.0118 51.8069C34.9561 51.7375 34.9024 51.6642 34.8505 51.5928L34.9024 51.5408L35.0655 51.7645C35.0463 51.7799 35.0156 51.8127 35.0118 51.8069H35.0118ZM36.6549 12.1131L36.6223 12.0707L36.7374 12.0013L36.6549 12.1131ZM81.5195 61.6276L81.529 61.6836L81.4196 61.7279L81.5195 61.6276ZM88.3702 48.9125C88.3181 48.9798 88.2623 49.0442 88.2032 49.1053V48.8875C88.2545 48.8536 88.3092 48.8251 88.3663 48.8026C88.3778 48.7987 88.3817 48.899 88.3702 48.9125L88.3702 48.9125ZM88.351 45.7906C88.3855 45.7251 88.4834 45.6634 88.5237 45.6788C88.564 45.6961 88.5909 45.7983 88.5794 45.8813C88.5609 45.983 88.5174 46.0784 88.4527 46.1589C88.3383 46.2414 88.2154 46.3112 88.0861 46.3672C88.1782 46.1763 88.2531 45.9738 88.351 45.7906L88.351 45.7906ZM87.3816 50.1254C87.3932 50.1042 87.4508 50.1003 87.4699 50.1177C87.4817 50.1324 87.4897 50.1497 87.4934 50.1681C87.4971 50.1866 87.4963 50.2057 87.4911 50.2238C87.3529 50.7078 87.086 51.0876 86.4718 51.535C86.9017 50.8967 87.1494 50.5169 87.3816 50.1254L87.3816 50.1254ZM77.905 62.9851C77.8482 63.0838 77.7694 63.1678 77.6748 63.2307C77.5803 63.2936 77.4725 63.3336 77.3599 63.3477C77.1656 63.394 76.9679 63.4243 76.7687 63.4383C76.6977 63.4421 76.6861 63.3689 76.6478 63.3303C76.7161 63.2454 76.7955 63.1702 76.8839 63.1066C77.0936 63.0025 77.3096 62.9117 77.5307 62.8347C77.8743 62.7017 78.0087 62.7634 77.905 62.9851L77.905 62.9851ZM79.4234 61.5428C79.2863 61.6295 79.1433 61.7062 78.9953 61.7723C79.0241 61.672 79.0529 61.5736 79.0913 61.4444C79.2436 61.3728 79.4 61.3103 79.5596 61.2574C79.6978 61.2265 79.6307 61.3904 79.4234 61.5428H79.4234ZM86.7693 53.3109C86.6637 53.606 86.5639 53.9106 86.4142 54.2577C86.5406 54.3174 86.6613 54.3884 86.7751 54.4698C86.8058 54.4949 86.777 54.6067 86.7578 54.6877C86.7305 54.7363 86.6924 54.7779 86.6464 54.8092C86.2875 54.8435 85.9258 54.8325 85.5696 54.7764C85.4583 54.7456 85.5024 54.4428 85.5274 54.2307C85.5919 54.091 85.6894 53.9692 85.8115 53.8759C85.9523 53.8411 86.0965 53.8217 86.2414 53.8181C86.4449 53.7718 86.6119 53.5539 86.7693 53.3109H86.7693ZM85.8211 52.7826C85.7923 52.9202 85.7499 53.0546 85.6944 53.1837C85.6374 53.2613 85.5595 53.3209 85.4698 53.3553C85.4507 53.2361 85.4423 53.1154 85.4449 52.9947C85.6138 52.9002 85.7174 52.8424 85.8211 52.7826ZM85.0763 55.4629C85.0996 55.4821 85.1197 55.5049 85.1358 55.5304C85.2241 55.7309 85.3124 55.9334 85.418 56.1764C85.2836 56.2747 85.1339 56.4213 85.0648 56.4251C84.9669 56.429 84.9266 56.3287 84.8613 56.2728C84.7721 56.3136 84.6872 56.3633 84.6079 56.4213C84.5152 56.5075 84.428 56.5996 84.3469 56.697C83.9726 57.1058 83.7173 57.1637 83.5273 57.0325C83.7753 56.7187 83.9895 56.3793 84.1665 56.0202C84.3738 55.5921 84.9036 55.2816 85.0763 55.4629V55.4629ZM82.3103 57.9118C82.7406 57.542 83.1082 57.1044 83.3986 56.616C83.6424 56.589 83.4927 56.884 83.5062 57.046C83.29 57.4481 82.9822 57.793 82.6078 58.0526C82.389 58.2107 82.1817 58.4344 81.9571 58.6157C81.8669 58.5964 81.7767 58.5752 81.6903 58.5559C81.8266 58.2666 82.0972 58.1162 82.3103 57.9118H82.3103ZM81.8823 58.6947L81.7421 58.8509C81.7688 58.8109 81.7983 58.7729 81.8304 58.7371C81.8477 58.7217 81.865 58.7082 81.8823 58.6947V58.6947ZM82.6347 58.9608C82.7092 58.9036 82.7949 58.8629 82.8862 58.8413C82.8964 58.9625 82.8667 59.0838 82.8017 59.1864C82.642 59.3769 82.461 59.5484 82.2623 59.6974C81.9744 59.9428 81.6265 60.1066 81.2546 60.1718C81.7306 59.7861 82.1721 59.36 82.6347 58.9608ZM80.4042 59.6974C80.3985 59.6241 80.529 59.4718 80.6115 59.331C80.6941 59.3773 80.7612 59.3908 80.7881 59.4352C80.8238 59.5123 80.8509 59.5931 80.8687 59.6762C80.6088 60 80.2675 60.2483 79.8802 60.3955C80.1316 60.1718 80.4196 59.9539 80.4042 59.6974ZM79.8111 60.4456C79.5027 60.8069 79.1369 61.1144 78.7285 61.3557C78.5692 61.4502 78.3177 61.3962 78.3695 61.2516C78.4345 61.1185 78.5229 60.9982 78.6306 60.8968C78.7245 60.8214 78.8277 60.7585 78.9377 60.7098C79.2064 60.5592 79.5044 60.4691 79.8111 60.4456ZM77.6075 60.4167C78.0536 60.249 78.4569 59.9836 78.788 59.6396C78.6269 59.9822 78.3968 60.2875 78.1123 60.5362C77.8744 60.7211 77.6177 60.8801 77.3464 61.0106C76.9837 61.2073 76.7648 61.1726 76.5863 61.0646C76.8648 60.763 77.2168 60.5397 77.6075 60.4167L77.6075 60.4167ZM74.2618 62.1791C74.6259 61.913 75.0525 61.7463 75.4999 61.6951C75.5959 61.6874 75.6093 61.8147 75.6439 61.888C75.6534 61.9092 75.6054 61.9651 75.5863 61.9979C75.4915 62.0651 75.3906 62.1232 75.2849 62.1714C74.9586 62.2697 74.638 62.3559 74.3232 62.4298C74.2445 62.4472 74.1389 62.4259 74.1332 62.3835C74.1398 62.3425 74.1546 62.3032 74.1767 62.2681C74.1988 62.233 74.2277 62.2027 74.2618 62.1791H74.2618ZM72.2098 64.4699C72.2893 64.449 72.3716 64.4406 72.4536 64.4449C72.4075 64.4718 72.3653 64.5046 72.3154 64.5278L71.9161 64.7032C72.0082 64.6183 72.1063 64.5403 72.2098 64.4699H72.2098ZM71.3749 64.952C71.5207 64.8845 71.6705 64.8228 71.8202 64.7611C71.7363 64.857 71.643 64.9442 71.5418 65.0214C71.4481 65.0467 71.3507 65.0559 71.2539 65.0484C71.2898 65.011 71.3305 64.9786 71.3749 64.952H71.3749ZM71.1061 63.9666C71.1253 63.9589 71.1637 63.9956 71.1637 64.0206C71.1615 64.0387 71.1556 64.0561 71.1464 64.0717C71.1371 64.0873 71.1247 64.1008 71.11 64.1113C70.8489 64.1884 70.5821 64.2443 70.321 64.3079L70.3115 64.198C70.5744 64.119 70.8451 64.0496 71.1061 63.9666H71.1061ZM68.4687 68.743C68.4952 68.7447 68.5215 68.7486 68.5474 68.7546L68.3228 68.7604C68.371 68.7513 68.4198 68.7455 68.4687 68.743H68.4687ZM61.9597 69.9L61.9635 69.8402L62.1248 69.8672L61.9597 69.9ZM65.411 67.1657C65.8947 67.0268 66.2095 66.8783 66.5224 66.9883C66.1819 67.17 65.7908 67.2325 65.411 67.1657V67.1657ZM67.4111 64.9019C67.4638 64.8942 67.5172 64.8922 67.5704 64.8961L67.5167 64.9655L67.2671 64.9674C67.3126 64.9405 67.3609 64.9185 67.4111 64.9019H67.4111ZM65.7334 65.2181L65.8678 65.301C65.7699 65.3242 65.672 65.3531 65.5741 65.3685C65.5434 65.3724 65.5108 65.3396 65.4781 65.3242L65.7334 65.2181ZM65.2593 66.2034C65.4635 66.1102 65.6763 66.0373 65.8947 65.9856C66.5224 65.8988 66.9849 66.0087 67.4975 66.055C67.5263 66.0588 67.5263 66.107 67.5128 66.134C67.4939 66.1712 67.4627 66.2005 67.4245 66.2169C67.3208 66.2702 67.2104 66.3091 67.0963 66.3326C66.5166 66.3982 65.9292 66.3847 65.3591 66.3982C65.2824 66.4001 65.2459 66.3288 65.1902 66.2902C65.2113 66.2613 65.219 66.2189 65.2593 66.2034H65.2593ZM64.0692 69.6339C64.1929 69.6201 64.3172 69.613 64.4416 69.6127C64.4589 69.6127 64.4589 69.6531 64.4665 69.6744L63.9291 69.7515C63.9233 69.7515 63.9118 69.7129 63.9041 69.6917C63.9568 69.6662 64.0122 69.6468 64.0692 69.6339L64.0692 69.6339ZM58.8885 66.7144C59.5987 66.674 60.2494 66.8591 60.9231 66.7954C61.2399 66.7742 61.5489 66.7588 61.8579 66.7549C62.167 66.7453 62.4741 66.7337 62.787 66.7453C61.9712 67.0789 61.8618 67.1155 61.1804 67.0365C60.4444 66.9576 59.7019 66.9627 58.9672 67.0519C58.422 67.1117 58.017 67.077 57.6466 66.8456C57.5103 66.7607 57.278 66.7067 57.017 66.593C57.7445 66.458 58.3184 66.7106 58.8885 66.7144H58.8885ZM57.7982 67.507C57.1958 67.5757 56.5865 67.4679 56.0438 67.1965C57.349 67.2351 57.3452 67.2235 57.7982 67.507H57.7982ZM53.3046 66.6489C53.6482 66.7202 53.9861 66.8051 54.3815 66.8706C54.0266 66.868 53.6727 66.8338 53.3238 66.7684C52.9469 66.6796 52.5793 66.555 52.2259 66.3963C52.6156 66.5062 52.961 66.5775 53.3047 66.6489L53.3046 66.6489ZM48.6268 66.3191C48.6479 66.3519 48.6901 66.3905 48.6806 66.4098C48.6729 66.4291 48.6095 66.4252 48.5692 66.431L48.5078 66.3404L48.6268 66.3191ZM47.7611 64.9231C47.8164 64.9347 47.8695 64.9548 47.9185 64.9828C47.954 65.0099 47.9857 65.0416 48.0126 65.0773C47.9042 65.0752 47.7998 65.0358 47.717 64.9655C47.7304 64.9501 47.7381 64.9192 47.7611 64.9231L47.7611 64.9231ZM44.1428 63.3438C44.1198 63.3727 43.9586 63.3592 43.8856 63.313C43.5017 63.0854 43.114 62.8559 42.7301 62.6265C42.3552 62.3893 41.9926 62.1332 41.6436 61.859C41.183 61.5061 40.8087 61.134 40.2923 60.8717C39.8549 60.6241 39.4686 60.2949 39.1541 59.9018C38.8374 59.5432 38.5129 59.1556 38.2173 58.7815C38.083 58.6099 37.8757 58.4055 37.9275 58.2107C38.3306 58.579 38.7433 58.9203 39.1291 59.2848C39.532 59.6306 39.9164 59.9974 40.2808 60.3839C40.6404 60.7324 41.0261 61.0528 41.4344 61.3422C41.851 61.6296 42.2848 61.8918 42.6955 62.1849C43.1639 62.4992 43.686 62.7537 44.0661 63.1433C44.1332 63.205 44.1736 63.3072 44.1429 63.3438L44.1428 63.3438ZM44.329 62.5551C44.0219 62.37 43.7705 62.2003 43.5113 62.0634C43.2322 61.9444 42.9593 61.8112 42.6936 61.6643C42.3309 61.4329 41.9738 61.1803 41.6283 60.9199C41.4611 60.7569 41.2548 60.64 41.0294 60.5806C40.6417 60.5304 40.4286 60.247 40.2635 59.9654C40.1522 59.7861 40.108 59.6164 39.8297 59.5007C39.4353 59.3323 39.1003 59.0488 38.8681 58.687C38.6032 58.2955 38.298 57.9311 37.9966 57.5512C37.6914 57.1771 37.3517 56.8204 37.0426 56.4347C37.0177 56.4039 37.0273 56.3518 37.0215 56.3036C37.0944 56.3364 37.1904 56.348 37.2403 56.4039C38.3836 57.6136 39.6017 58.7497 40.8874 59.8054C41.9796 60.6943 43.066 61.5948 44.2427 62.3854C44.2753 62.4086 44.2791 62.4549 44.329 62.5551H44.329ZM42.3923 60.2373C42.4383 60.1004 42.469 60.0079 42.4997 59.9172C42.5631 60.058 42.6245 60.1891 42.3923 60.2373L42.3923 60.2373ZM42.4729 59.8575L41.9258 59.4352C42.1581 59.5162 42.3846 59.601 42.4729 59.8575H42.4729ZM41.3116 58.7969C41.505 58.9837 41.6871 59.182 41.8567 59.3908C41.5976 59.358 41.3384 59.3445 41.0697 59.2848C40.5258 59.1677 40.0436 58.8541 39.7146 58.4035C39.3863 57.9504 38.9045 57.5455 38.8085 57.0576C38.7452 56.7549 38.4477 56.4348 38.1809 56.1339C38.3144 56.1678 38.4406 56.2259 38.5532 56.3056L39.2155 56.9573C39.4401 57.1714 39.6742 57.3738 39.9027 57.584C40.3538 58.0102 40.8394 58.3939 41.3116 58.7969H41.3116ZM84.7384 14.9921C84.622 14.8715 84.5137 14.7433 84.4141 14.6083C84.3776 14.5524 84.3795 14.4232 84.4217 14.4232C84.5599 14.4252 84.6693 14.591 84.7308 14.7375C84.7653 14.8166 84.7385 14.8821 84.7385 14.9921L84.7384 14.9921ZM84.5216 11.8413C84.2284 11.4618 83.9076 11.1047 83.5618 10.773C83.1885 10.4336 82.8341 10.0737 82.5003 9.69507C82.9291 9.78123 83.3131 10.0186 83.5829 10.3642C83.8209 10.6631 84.1607 10.9523 84.4601 11.2608C84.7596 11.5713 85.0187 11.903 85.0302 12.3233C84.8057 12.0977 84.6233 11.9762 84.5216 11.8412L84.5216 11.8413ZM86.0073 13.4649C85.6618 13.112 85.5619 12.734 85.8402 12.7167C85.8671 12.7148 85.9228 12.7553 85.9708 12.7784C86.0073 12.8208 86.0782 12.8825 86.0859 12.9114C86.1443 13.1247 86.1873 13.3418 86.2145 13.5613C86.1375 13.5504 86.0654 13.5169 86.0073 13.4649L86.0073 13.4649ZM86.4353 12.8189L86.3681 12.7109L86.4679 12.79L86.4353 12.8189ZM87.7828 13.9238C87.7116 13.8343 87.6492 13.7381 87.5966 13.6365C87.6778 13.6805 87.7538 13.7335 87.8231 13.7946C87.8949 13.8821 87.9591 13.9757 88.015 14.0742C87.9302 14.0368 87.8518 13.986 87.7828 13.9238L87.7828 13.9238ZM88.2684 16.2956C88.2831 16.2109 88.303 16.1272 88.3279 16.0449C88.3318 16.0353 88.399 16.097 88.4354 16.1259L88.4393 16.4537C88.4009 16.4171 88.3606 16.3824 88.2684 16.2956L88.2684 16.2956ZM90.3856 23.0465L90.4298 22.9809L90.4663 23.0889L90.3856 23.0465ZM90.7254 20.4819C90.6659 20.0943 90.5776 19.7164 90.495 19.3326C90.7331 19.7916 90.9327 20.2409 90.7254 20.4819L90.7254 20.4819ZM90.8233 24.3404L90.8713 24.3385L90.8808 24.4599L90.8233 24.3404ZM92.929 35.5071C92.8464 35.536 92.7485 35.6363 92.6852 35.5746C92.5697 35.4367 92.4782 35.2802 92.4146 35.1118C92.3817 35.0098 92.3699 34.9022 92.38 34.7955C92.3874 34.7655 92.4062 34.7396 92.4324 34.7234C92.4586 34.7072 92.4901 34.7019 92.5201 34.7088C92.6094 34.7585 92.6919 34.8194 92.7658 34.89C92.8105 34.9769 92.8465 35.068 92.8733 35.1619C92.8976 35.276 92.9162 35.3912 92.929 35.5071L92.929 35.5071ZM92.3282 32.9425C92.3159 32.8388 92.314 32.7341 92.3224 32.6301C92.359 32.499 92.4032 32.3703 92.4548 32.2444C92.5212 32.382 92.577 32.5245 92.6219 32.6706C92.6328 32.768 92.6134 32.8663 92.5662 32.9521C92.4952 32.9887 92.4088 32.9502 92.3282 32.9425H92.3282ZM92.6449 25.9563C92.6487 25.9331 92.7581 26.045 92.8522 26.1221C92.8481 26.2595 92.8288 26.3959 92.7946 26.529C92.7793 26.5656 92.6756 26.448 92.6103 26.4017C92.6135 26.2527 92.625 26.104 92.6449 25.9563L92.6449 25.9563ZM92.4702 31.745C92.4728 31.8911 92.4677 32.0372 92.4548 32.1827C92.4107 32.0554 92.3627 31.932 92.3243 31.799C92.3196 31.7455 92.3222 31.6917 92.332 31.6389C92.38 31.6756 92.4683 31.7161 92.4702 31.745L92.4702 31.745ZM92.3224 30.1464C92.3437 30.1892 92.3592 30.2346 92.3685 30.2814C92.3664 30.3228 92.3587 30.3637 92.3455 30.4029C92.3245 30.3607 92.309 30.316 92.2994 30.2699C92.3013 30.2278 92.3091 30.1863 92.3224 30.1465L92.3224 30.1464ZM91.9846 43.3031C91.9577 43.5326 91.808 43.6791 91.6237 43.6502C91.5979 43.5331 91.5921 43.4125 91.6064 43.2935C91.6717 43.0428 91.8061 42.8365 91.9212 42.9098C91.9788 42.9464 92.0038 43.1527 91.9846 43.3031L91.9846 43.3031ZM92.547 41.0509C92.4853 41.2522 92.3841 41.439 92.2495 41.6005C92.1305 41.7663 91.9788 41.6294 92.0076 41.4018C92.0709 40.8581 92.1017 40.3085 92.1727 39.7146C92.2021 39.5851 92.2697 39.4675 92.3666 39.3771C92.3869 39.3665 92.4093 39.3607 92.4322 39.3601C92.4551 39.3594 92.4779 39.364 92.4987 39.3735C92.5196 39.383 92.5381 39.3971 92.5528 39.4147C92.5674 39.4324 92.5779 39.4532 92.5835 39.4755C92.703 39.9954 92.6905 40.5371 92.547 41.0509H92.547ZM92.3877 37.9791C92.3106 37.6144 92.3093 37.2376 92.3838 36.8723C92.4318 36.4982 92.5662 36.3035 92.7965 36.2765C92.9213 36.261 93.023 36.5541 92.9462 36.7952C92.8618 37.0709 92.762 37.3254 92.6698 37.5858L92.3877 37.9791ZM92.8983 42.607C92.9007 42.6554 92.8981 42.7038 92.8906 42.7516C92.8737 42.7898 92.8517 42.8255 92.8253 42.8577L92.833 42.7111L92.8983 42.607ZM93.3551 44.597C93.3071 44.7609 93.2553 44.9229 93.1958 45.0829C93.0883 45.3703 92.9654 45.4994 92.8464 45.4377C92.737 45.3799 92.6871 45.2218 92.7466 44.9383C92.771 44.8194 92.8104 44.7041 92.8637 44.5951C92.8925 44.5411 92.9923 44.5237 93.0019 44.57C93.0653 44.8554 93.1977 44.7821 93.3551 44.597L93.3551 44.597ZM93.2054 29.5063C93.1555 29.4484 93.0653 29.379 93.0634 29.3404C93.048 29.1129 93.0499 28.8892 93.0461 28.6655C93.1017 28.8873 93.1574 29.109 93.2131 29.3327C93.2181 29.3906 93.2155 29.449 93.2054 29.5063L93.2054 29.5063ZM93.5067 32.0767C93.5144 32.0227 93.5452 31.9455 93.5567 31.9552C93.6046 31.9899 93.6853 32.0535 93.691 32.1114C93.7102 32.3563 93.7044 32.605 93.7083 32.8846C93.6126 32.7761 93.5443 32.646 93.5093 32.5054C93.4742 32.3647 93.4733 32.2177 93.5068 32.0767L93.5067 32.0767ZM93.7524 34.2209L93.7486 34.3231L93.7064 34.2575L93.7524 34.2209ZM93.7966 37.1538C93.7505 37.3274 93.716 37.5144 93.6584 37.769C93.6114 37.6072 93.5761 37.4422 93.5528 37.2753C93.5202 36.7952 93.5605 36.6544 93.7467 36.5541C93.8215 36.5226 93.9016 36.5056 93.9828 36.504C93.9271 36.7219 93.8542 36.934 93.7966 37.1538H93.7966ZM94.0864 31.1492C94.0999 31.0354 94.121 31.0585 94.1459 31.2012L94.0864 31.1492ZM94.3993 36.0374L94.4339 35.7173C94.4469 35.7553 94.4553 35.7948 94.4588 35.8349C94.4416 35.9062 94.4204 35.9718 94.3993 36.0374L94.3993 36.0374ZM92.2264 46.5099C91.9174 46.1705 91.6237 45.8195 91.3435 45.4609C91.3411 45.4695 91.3379 45.4779 91.3339 45.486L92.0652 47.2715C92.047 47.2241 92.0335 47.1751 92.0249 47.125C92.045 46.9423 92.0956 46.7644 92.1746 46.5986C92.1875 46.5666 92.205 46.5368 92.2264 46.5099L92.2264 46.5099ZM78.2908 18.8216L74.5516 27.9598C78.2825 28.3311 81.7185 30.1609 84.1184 33.0543L78.2908 18.8216ZM73.1331 28.5325C70.8575 28.5296 68.6189 29.111 66.6298 30.2217V45.6055L73.6245 28.5363C73.4633 28.5325 73.2963 28.5325 73.1331 28.5325L73.1331 28.5325ZM59.687 42.042C59.69 43.8827 60.0671 45.7033 60.7952 47.3923C61.5234 49.0814 62.5872 50.6033 63.9214 51.8647C64.1364 51.6333 64.3322 51.2187 64.5798 50.6094V50.6075L64.67 50.3877V31.5522C63.1133 32.8167 61.858 34.4151 60.9958 36.2301C60.1336 38.0451 59.6864 40.0309 59.687 42.042L59.687 42.042ZM53.8114 47.1848C53.5388 47.7729 53.3277 48.2415 53.1223 48.8219C52.8651 49.5431 52.7173 50.056 52.7173 50.5516C52.7066 50.7528 52.738 50.954 52.8094 51.1423C52.8808 51.3306 52.9907 51.5018 53.1319 51.6449C53.237 51.7484 53.3616 51.8298 53.4983 51.8844C53.6351 51.9391 53.7813 51.9658 53.9285 51.9631C54.6694 51.9264 54.9842 51.5523 54.9842 50.7097C54.9842 50.1929 54.6368 49.2307 53.8114 47.1848L53.8114 47.1848ZM78.2908 18.8216L74.5517 27.9598C78.2825 28.3311 81.7185 30.1609 84.1185 33.0543L78.2908 18.8216ZM73.1331 28.5325C70.8575 28.5296 68.6189 29.111 66.6299 30.2217V45.6055L73.6245 28.5363C73.4633 28.5325 73.2963 28.5325 73.1331 28.5325V28.5325ZM59.687 42.042C59.69 43.8827 60.0671 45.7033 60.7953 47.3923C61.5234 49.0814 62.5872 50.6033 63.9214 51.8647C64.1364 51.6333 64.3322 51.2188 64.5798 50.6094V50.6075L64.67 50.3877V31.5522C63.1134 32.8167 61.858 34.4151 60.9958 36.2301C60.1336 38.0451 59.6864 40.0309 59.687 42.042V42.042ZM53.8114 47.1848C53.5388 47.7729 53.3277 48.2415 53.1223 48.8219C52.8651 49.5431 52.7173 50.056 52.7173 50.5516C52.7066 50.7528 52.738 50.954 52.8094 51.1423C52.8809 51.3306 52.9907 51.5018 53.1319 51.6449C53.237 51.7484 53.3616 51.8298 53.4983 51.8844C53.6351 51.9391 53.7813 51.9658 53.9285 51.9631C54.6694 51.9264 54.9842 51.5523 54.9842 50.7097C54.9842 50.1929 54.6368 49.2307 53.8114 47.1848L53.8114 47.1848ZM78.2908 18.8216L74.5517 27.9598C78.2825 28.3311 81.7185 30.1609 84.1185 33.0543L78.2908 18.8216ZM73.1331 28.5325C70.8575 28.5296 68.6189 29.111 66.6299 30.2217V45.6055L73.6245 28.5363C73.4633 28.5325 73.2963 28.5325 73.1331 28.5325V28.5325ZM59.687 42.042C59.69 43.8827 60.0671 45.7033 60.7953 47.3923C61.5234 49.0814 62.5872 50.6033 63.9214 51.8647C64.1364 51.6333 64.3322 51.2188 64.5798 50.6094V50.6075L64.67 50.3877V31.5522C63.1134 32.8167 61.858 34.4151 60.9958 36.2301C60.1336 38.0451 59.6864 40.0309 59.687 42.042V42.042ZM53.8114 47.1848C53.5388 47.7729 53.3277 48.2415 53.1223 48.8219C52.8651 49.5431 52.7173 50.056 52.7173 50.5516C52.7066 50.7528 52.738 50.954 52.8094 51.1423C52.8809 51.3306 52.9907 51.5018 53.1319 51.6449C53.237 51.7484 53.3616 51.8298 53.4983 51.8844C53.6351 51.9391 53.7813 51.9658 53.9285 51.9631C54.6694 51.9264 54.9842 51.5523 54.9842 50.7097C54.9842 50.1929 54.6368 49.2307 53.8114 47.1848L53.8114 47.1848ZM53.8114 47.1848C53.5388 47.7729 53.3277 48.2415 53.1223 48.8219C52.8651 49.5431 52.7173 50.056 52.7173 50.5516C52.7066 50.7528 52.738 50.954 52.8094 51.1423C52.8809 51.3306 52.9907 51.5018 53.1319 51.6449C53.237 51.7484 53.3616 51.8298 53.4983 51.8844C53.6351 51.9391 53.7813 51.9658 53.9285 51.9631C54.6694 51.9264 54.9842 51.5523 54.9842 50.7097C54.9842 50.1929 54.6368 49.2307 53.8114 47.1848L53.8114 47.1848ZM53.8114 47.1848C53.5388 47.7729 53.3277 48.2415 53.1223 48.8219C52.8651 49.5431 52.7173 50.056 52.7173 50.5516C52.7066 50.7528 52.738 50.954 52.8094 51.1423C52.8809 51.3306 52.9907 51.5018 53.1319 51.6449C53.237 51.7484 53.3616 51.8298 53.4983 51.8844C53.6351 51.9391 53.7813 51.9658 53.9285 51.9631C54.6694 51.9264 54.9842 51.5523 54.9842 50.7097C54.9842 50.1929 54.6368 49.2307 53.8114 47.1848L53.8114 47.1848Z" fill="#020202"/>
<path d="M60.9462 0.0381017C60.4702 0.0593129 59.9845 0.04003 59.5046 0.0573846C59.0308 0.0523682 58.5577 0.0989184 58.0938 0.196221C58.0661 0.258146 58.0474 0.323728 58.0381 0.390978C58.0496 0.601161 57.7233 0.736141 57.3298 0.666722C57.0997 0.60908 56.8729 0.538916 56.6503 0.456539C55.9804 0.552954 55.2203 0.620444 54.4755 0.772778C54.3844 0.799661 54.2963 0.835844 54.2126 0.880762C54.4975 0.991121 54.811 1.00266 55.1032 0.913543C55.4142 0.851847 55.7347 0.74771 56.0418 0.709145C56.4277 0.963678 56.42 0.969463 57.017 0.944395C57.319 0.944568 57.6199 0.980817 57.9134 1.05238C58.2225 1.13247 58.5451 1.14562 58.8597 1.09095C59.4413 0.948252 59.33 1.17 59.4432 1.28377C59.5204 1.33778 59.6105 1.37037 59.7043 1.37826C59.8636 1.33777 60.1054 1.27413 60.1169 1.21628C60.1657 0.899534 60.1958 0.580169 60.2072 0.259854C60.5777 0.290707 60.9673 0.381336 61.2053 0.336986C61.8584 0.190586 62.5351 0.185984 63.1901 0.323488C63.24 0.338893 63.2928 0.34286 63.3444 0.335097C63.3961 0.327335 63.4454 0.308039 63.4887 0.278629C63.5319 0.249218 63.5681 0.210441 63.5945 0.165147C63.6209 0.119853 63.6368 0.069193 63.6412 0.0168906C62.7333 0.00339454 61.8368 -0.0216751 60.9462 0.0381017ZM59.0248 0.620444C58.9806 0.612731 58.9269 0.585734 58.9307 0.566452C58.9499 0.516654 58.9771 0.470391 59.0113 0.429543C59.0555 0.435328 59.1361 0.439185 59.1399 0.450755C59.1506 0.498168 59.1545 0.546865 59.1514 0.595376C59.1107 0.609884 59.068 0.61833 59.0248 0.620447V0.620444Z" fill="#020202"/>
<path d="M94.6438 38.3622C94.6297 38.4894 94.6048 38.6152 94.5695 38.7382C94.2935 39.1238 94.1719 39.5995 94.2287 40.071C94.2436 40.2584 94.2391 40.4469 94.2153 40.6333C94.1647 40.9354 93.9959 41.1567 94.0379 41.552C94.0199 41.9554 93.9707 42.3569 93.8908 42.7527C94.032 42.4058 94.1591 42.0593 94.272 41.7132C94.3797 41.3659 94.4597 41.0159 94.5375 40.6676C94.6859 39.9738 94.7823 39.2697 94.8259 38.5614C94.8181 38.4753 94.7835 38.3939 94.7272 38.3286C94.7105 38.3036 94.6515 38.331 94.6438 38.3622Z" fill="#020202"/>
<path d="M52.0003 2.25042C52.0947 2.29272 52.1999 2.30375 52.3009 2.28191C52.6256 2.20916 52.9469 2.11495 53.2701 2.02968L53.2656 2.01111C53.7249 1.90724 54.194 1.84333 54.6511 1.74021C54.8272 1.69523 54.9966 1.62731 55.1552 1.53818C55.2385 1.4965 55.2995 1.41142 55.2702 1.36936C55.1893 1.30793 55.0878 1.28031 54.9871 1.29229C54.4878 1.35842 53.9946 1.46442 53.5122 1.6093C53.0393 1.75535 52.5821 1.93661 52.1115 2.0855C52.0435 2.10734 51.9662 2.22084 52.0003 2.25042Z" fill="#020202"/>
<path d="M45.6788 4.25569L46.5948 3.83566C46.9066 3.69491 47.2353 3.5712 47.5773 3.4301L47.7319 3.15893C47.8606 2.98545 48.0462 2.8632 48.2559 2.81371C47.8323 2.77785 47.3464 2.95573 46.8383 3.16014C46.1967 3.41978 45.9449 3.80823 45.5508 4.13742C45.5227 4.16144 45.546 4.20249 45.5683 4.22273C45.5833 4.2358 45.601 4.2455 45.62 4.25118C45.6391 4.25687 45.6591 4.2584 45.6788 4.25569Z" fill="#020202"/>
<path d="M87.7578 54.7612C87.5173 54.9786 87.2809 55.1925 87.051 55.4004C86.949 55.7748 87.0337 55.9114 87.2774 55.766C87.6579 55.5315 88.0186 55.2659 88.3557 54.9719C88.4875 54.8161 88.6042 54.6481 88.7044 54.4701C88.6203 54.3315 88.5433 54.2045 88.46 54.0671C88.2237 54.3006 87.9888 54.5328 87.7578 54.7612Z" fill="#020202"/>
<path d="M89.1906 53.0319C89.3984 53.0067 89.6278 52.9844 89.8947 52.5719C90.182 52.125 90.4174 51.6437 90.813 50.9265C90.0585 51.4007 89.6168 52.0224 89.1676 52.8169C89.1334 52.8802 89.1486 53.037 89.1906 53.0319Z" fill="#020202"/>
<path d="M73.7771 4.05779C73.9605 4.0204 74.139 3.96201 74.3092 3.88376C74.0239 3.79591 73.7344 3.72247 73.4417 3.66373C73.3271 3.64578 73.2744 3.74676 73.2133 3.80405C73.1995 3.81701 73.2624 3.89283 73.2956 3.90515C73.4481 3.9787 73.6102 4.03009 73.7771 4.05779Z" fill="#020202"/>
<path d="M48.3533 2.78394C48.3436 2.78544 48.3349 2.78836 48.3252 2.78981C48.3006 2.79693 48.2795 2.80606 48.256 2.81381C48.2718 2.81514 48.289 2.81165 48.3047 2.8136C48.3201 2.80305 48.3377 2.79433 48.3533 2.78394Z" fill="#020202"/>
<path d="M50.1881 2.02759C49.5357 2.16518 48.9139 2.42149 48.3533 2.78386C49.0174 2.68661 49.6474 2.4269 50.1881 2.02759Z" fill="#020202"/>
<path d="M78.3162 5.39126C78.3505 5.36999 78.3007 5.24493 78.2402 5.20217C77.9617 5.01537 77.6719 4.84626 77.3724 4.6958C77.7356 5.02127 77.8772 5.17877 78.0491 5.32735C78.1294 5.37595 78.2227 5.39828 78.3162 5.39126Z" fill="#020202"/>
<path d="M68.6043 2.19291C68.6948 2.20804 68.787 2.21025 68.8782 2.19948C68.8519 2.16835 68.8399 2.12964 68.7962 2.10763C68.6931 2.05583 68.5746 2.012 68.462 1.96513C68.4062 1.96098 68.3074 1.94551 68.3003 1.95907C68.2449 2.05813 68.4483 2.13138 68.6043 2.19291Z" fill="#020202"/>
<path d="M70.5276 68.4125C70.8 68.306 71.1055 68.2202 71.3977 68.1269L71.474 68.1162L71.4083 68.1236L71.3814 68.1292C71.1129 68.1458 70.8472 68.1928 70.5892 68.2693C70.3346 68.3278 70.0779 68.3954 69.8265 68.4417C69.9809 68.5239 70.1577 68.5579 70.5276 68.4125Z" fill="#020202"/>
<path d="M69.8274 68.4419C69.8186 68.4372 69.8096 68.433 69.8009 68.428L69.7977 68.4283C69.7891 68.4368 69.7807 68.4455 69.7714 68.4537C69.7898 68.4505 69.8089 68.4453 69.8274 68.4419Z" fill="#020202"/>
<path d="M81.3691 7.67025C81.4295 7.65637 81.5332 7.64265 81.5098 7.59579C81.4277 7.4605 81.3355 7.3316 81.2341 7.21019C81.1358 7.20087 80.9943 7.17255 81.0033 7.19139C81.0703 7.32337 81.1471 7.45012 81.233 7.57055C81.2715 7.61236 81.3177 7.64622 81.3691 7.67025Z" fill="#020202"/>
<path d="M74.3291 3.11539C74.2492 3.02418 74.1574 2.94415 74.0564 2.87744C73.9567 2.83389 73.8476 2.81675 73.7395 2.82766C73.7013 2.8391 73.7959 2.98858 73.8248 2.99773C73.981 3.04739 74.1356 3.07283 74.3291 3.11539Z" fill="#020202"/>
<path d="M82.4978 8.42664C82.5117 8.39232 82.4056 8.27018 82.3521 8.18661C82.2713 8.17461 82.1297 8.12387 82.1255 8.16118C82.1202 8.20949 82.2241 8.3279 82.281 8.41627C82.358 8.42312 82.4824 8.46474 82.4978 8.42664Z" fill="#020202"/>
<path d="M32.65 16.4465L32.4325 16.6405L32.2872 16.9459C32.365 16.8934 32.436 16.8313 32.4985 16.7611C32.5577 16.6607 32.6084 16.5555 32.65 16.4465Z" fill="#020202"/>
<path d="M76.1951 65.6858C76.2101 65.6772 76.2254 65.6687 76.2403 65.6599L76.2143 65.6499C76.2096 65.6542 76.2045 65.6578 76.1998 65.6621C76.1978 65.6699 76.1963 65.6778 76.1951 65.6858Z" fill="#020202"/>
<path d="M75.5688 66.1416C75.6783 66.1265 75.7862 66.1008 75.8909 66.0652C76.2301 65.9195 76.1719 65.8047 76.1951 65.6851C76.0409 65.7737 75.8824 65.8594 75.7391 65.9551C75.6742 66.0093 75.6169 66.072 75.5688 66.1416Z" fill="#020202"/>
<path d="M79.6136 6.168C79.5703 6.13035 79.5208 6.10067 79.4672 6.08032C79.4301 6.10974 79.3988 6.14589 79.3748 6.18689C79.4754 6.24662 79.5761 6.30641 79.6777 6.3668C79.6635 6.29841 79.642 6.23176 79.6136 6.168Z" fill="#020202"/>
<path d="M93.5015 24.597C93.5465 24.6781 93.5979 24.7553 93.6552 24.8281C93.6397 24.7135 93.6096 24.6015 93.5657 24.4946C93.5168 24.4167 93.4571 24.3462 93.3885 24.2852C93.4197 24.3914 93.4574 24.4955 93.5015 24.597Z" fill="#020202"/>
<path d="M51.7938 1.61834C51.7149 1.60832 51.6355 1.60231 51.556 1.60034C51.5258 1.62283 51.4973 1.64757 51.4707 1.67435C51.5521 1.68021 51.6334 1.68663 51.7156 1.69761L51.7938 1.61834Z" fill="#020202"/>
<path d="M82.9386 60.163C82.9774 60.1649 83.097 60.0596 83.1797 60.003C83.1526 59.9662 83.145 59.8841 83.0941 59.9016C82.9615 59.9545 82.8323 60.0159 82.7075 60.0854C82.7785 60.1267 82.8571 60.153 82.9386 60.163Z" fill="#020202"/>
<path d="M82.7082 60.0857C82.6995 60.0817 82.6912 60.0773 82.6822 60.0737L82.6724 60.0805C82.6708 60.0893 82.6675 60.0985 82.6662 60.1073C82.68 60.1004 82.6942 60.0928 82.7082 60.0857Z" fill="#020202"/>
<path d="M87.2501 52.3663L87.3329 52.2312C87.287 52.2171 87.2394 52.2098 87.1914 52.2095C87.1607 52.2475 87.1336 52.2883 87.1105 52.3314C87.1564 52.3428 87.2022 52.3543 87.2501 52.3663Z" fill="#020202"/>
<path d="M31.1482 47.7273L30.9845 47.4746L30.9484 47.6717C31.0083 47.7288 31.0683 47.7907 31.1278 47.8365C31.1353 47.8422 31.1414 47.7657 31.1482 47.7273Z" fill="#020202"/>
<path d="M75.607 3.89864C75.6325 3.88868 75.6189 3.85058 75.6221 3.82469L75.4085 3.77588L75.4712 3.87216C75.515 3.88747 75.5607 3.89639 75.607 3.89864Z" fill="#020202"/>
<path d="M61.4996 1.15592L61.5551 1.10231L61.4482 1.09961L61.4996 1.15592Z" fill="#020202"/>
<path d="M67.0908 1.67247C67.0474 1.65406 67.0028 1.63895 66.9571 1.62724C66.9403 1.62401 66.9208 1.64865 66.9024 1.66053C66.946 1.67919 66.9909 1.69467 67.0368 1.70684C67.0522 1.71006 67.0726 1.68474 67.0908 1.67247Z" fill="#020202"/>
<path d="M70.9982 2.70272C70.9509 2.67596 70.9016 2.65282 70.8508 2.6335C70.8336 2.62812 70.8063 2.65577 70.7836 2.66831C70.8313 2.69553 70.8807 2.71934 70.9317 2.73956C70.9465 2.7445 70.9756 2.71588 70.9982 2.70272Z" fill="#020202"/>
<path d="M54.1325 68.8114L54.4295 68.8205L54.4385 68.8106L54.4038 68.8044C54.2982 68.8071 54.1926 68.8099 54.1325 68.8114Z" fill="#020202"/>
<path d="M75.3987 4.59977C75.3941 4.59293 75.3902 4.58586 75.3853 4.57913L75.306 4.50806L75.3505 4.5779C75.3667 4.58508 75.3825 4.59271 75.3987 4.59977Z" fill="#020202"/>
<path d="M75.8284 4.84992C75.7919 4.80738 75.75 4.76984 75.7037 4.73827C75.6055 4.68712 75.5014 4.64456 75.3987 4.59985C75.438 4.67381 75.4905 4.73982 75.5537 4.79455C75.6422 4.82588 75.7347 4.84452 75.8284 4.84992Z" fill="#020202"/>
<path d="M35.6804 12.7189C35.6883 12.7161 35.6964 12.7126 35.7043 12.7098C35.7119 12.7016 35.7199 12.6934 35.7275 12.6853L35.7116 12.678C35.7012 12.6913 35.6908 12.7051 35.6804 12.7189Z" fill="#020202"/>
<path d="M35.4068 12.9101C35.5054 12.9534 35.5927 12.8333 35.6804 12.718C35.6099 12.7402 35.5407 12.7664 35.4731 12.7964C35.4444 12.83 35.4219 12.8685 35.4068 12.9101Z" fill="#020202"/>
<path d="M89.0099 50.0067L89.0535 49.844C89.0503 49.8528 89.0459 49.8617 89.043 49.8705C89.0273 49.9163 89.0222 49.9622 89.0099 50.0067Z" fill="#020202"/>
<path d="M89.0535 49.844C89.0718 49.7941 89.093 49.7438 89.1131 49.6937C89.1129 49.6856 89.1133 49.6775 89.1131 49.6694L89.0886 49.7132L89.0535 49.844Z" fill="#020202"/>
<path d="M28.448 29.8656C28.4594 29.8258 28.4612 29.784 28.4534 29.7434C28.4532 29.7368 28.4523 29.7298 28.4521 29.7231C28.4456 29.7382 28.4428 29.754 28.4357 29.7689L28.448 29.8656Z" fill="#020202"/>
<path d="M28.4778 30.0982L28.448 29.8655C28.4278 29.9675 28.3925 30.0817 28.4778 30.0982Z" fill="#020202"/>
<path d="M31.6911 44.1096C31.676 44.1261 31.6453 44.1451 31.6487 44.1585C31.6623 44.2031 31.6804 44.2461 31.7028 44.287C31.7166 44.2702 31.7448 44.2528 31.7415 44.2369C31.7284 44.1931 31.7115 44.1505 31.6911 44.1096Z" fill="#020202"/>
<path d="M77.9601 65.0309L77.9981 64.9617L77.9027 65.0105L77.9601 65.0309Z" fill="#020202"/>
<path d="M85.1023 59.0178L85.0461 59.0449C85.0427 59.0463 85.04 59.048 85.0367 59.0493C85.0363 59.0513 85.0352 59.0533 85.0348 59.0553L85.1023 59.0178Z" fill="#020202"/>
<path d="M74.3869 3.88831L74.3108 3.88306L74.3092 3.88366C74.3145 3.88509 74.3198 3.88667 74.3251 3.88807L74.3869 3.88831Z" fill="#020202"/>
<path d="M51.1153 2.49463L51.0216 2.5143L51.0642 2.54804L51.1153 2.49463Z" fill="#020202"/>
<path d="M50.2138 2.8839L50.1243 2.87866L50.0865 2.9027C50.0908 2.90244 50.0952 2.90257 50.0995 2.90226L50.2138 2.8839Z" fill="#020202"/>
<path d="M40.0434 58.1011C40.0051 58.0794 39.9651 58.0604 39.924 58.0444C39.9385 58.116 39.9586 58.1864 39.9842 58.2548C40.0244 58.2846 40.0681 58.3094 40.1142 58.3287C40.0912 58.2543 40.0738 58.1788 40.0434 58.1011Z" fill="#020202"/>
<path d="M90.831 49.001L90.8655 49.084C90.8751 49.0165 90.8847 48.949 90.8924 48.8815C90.8713 48.922 90.8521 48.9605 90.831 49.001ZM93.2611 50.5938L92.1765 47.9443C92.1479 48.0011 92.1145 48.0552 92.0767 48.1063C92.0191 48.1873 91.856 48.4013 91.856 48.4013L91.8349 48.3936C91.8349 48.3936 91.3454 49.2305 91.1842 49.4619C91.1555 49.5026 91.1241 49.5413 91.0901 49.5776C91.0845 49.5829 91.0793 49.5887 91.0747 49.5949L91.3607 50.293C91.975 52.1441 92.2034 52.3312 90.6333 52.3312V52.5606H95.503V52.3312C94.4185 52.3312 94.0173 52.3312 93.2611 50.5938Z" fill="#020202"/>
<path d="M95.503 52.1789C94.4377 52.1789 94.1172 52.1789 93.4012 50.536L92.2341 47.6841C92.2421 47.7747 92.222 47.8657 92.1765 47.9444C92.1479 48.0011 92.1145 48.0553 92.0767 48.1064L93.1209 50.6556C93.643 51.853 94.0231 52.2657 94.5375 52.4084H91.5796C91.7037 52.3798 91.8138 52.3081 91.8905 52.2059C92.0806 51.9398 91.9424 51.5349 91.6679 50.7269C91.618 50.5804 91.5623 50.4203 91.5009 50.2352L91.1842 49.462C91.1555 49.5027 91.1241 49.5413 91.0901 49.5777C91.0845 49.5829 91.0793 49.5888 91.0747 49.595L90.8655 49.084C90.8751 49.0165 90.8847 48.949 90.8924 48.8815C90.8712 48.922 90.8521 48.9606 90.8309 49.0011C90.8003 49.0609 90.7695 49.1187 90.7388 49.1766L90.8214 49.3771L90.9519 49.6953L91.2168 50.3413C91.2763 50.5167 91.33 50.6787 91.3819 50.8253C91.5987 51.4674 91.7446 51.8897 91.6448 52.0285C91.5469 52.1673 91.0901 52.1789 90.6332 52.1789H90.4816V52.713H95.6547V52.1789H95.503Z" fill="#020202"/>
<path d="M104.266 43.2549C104.043 42.9553 103.763 42.704 103.441 42.5164C103.12 42.3289 102.763 42.2088 102.394 42.1635C102.011 42.1106 101.621 42.1836 101.283 42.3718C100.959 42.5665 100.69 42.8414 100.501 43.1701C100.317 43.4827 100.174 43.8177 100.075 44.167C100.05 44.2557 100.025 44.3425 100.004 44.4312C99.9832 44.3733 99.9601 44.3155 99.9352 44.2576C99.8074 43.9312 99.5863 43.6501 99.2998 43.4497C99.1466 43.3504 98.9724 43.2883 98.7911 43.2684C98.6162 43.2501 98.4394 43.2631 98.269 43.307C98.186 43.3275 98.1045 43.3539 98.0253 43.386C97.9429 43.4149 97.8637 43.4524 97.7892 43.4979C97.637 43.5908 97.5062 43.715 97.4053 43.8623C97.218 44.145 97.0972 44.4668 97.0521 44.8033C97.0048 45.1284 96.9977 45.458 97.0309 45.7848C97.1001 46.4289 97.2732 47.0574 97.5434 47.6456C97.833 48.2824 98.2132 48.8735 98.6721 49.4004C98.4846 49.4184 98.2961 49.4248 98.1078 49.4196C97.4334 49.404 96.7669 49.2703 96.1384 49.0243C95.5051 48.7755 94.9049 48.4491 94.3513 48.0525C93.6567 47.5527 93.013 46.9849 92.4299 46.3575C92.4208 46.3536 92.4109 46.3517 92.4009 46.352C92.3909 46.3524 92.3812 46.3549 92.3723 46.3595C92.3131 46.398 92.2633 46.4494 92.2264 46.5099C92.8174 47.168 93.4719 47.7655 94.1805 48.2935C94.7481 48.7154 95.3666 49.0634 96.0213 49.329C96.684 49.5931 97.3875 49.7387 98.1001 49.759C98.3875 49.7684 98.6752 49.7536 98.9601 49.7147C99.2652 50.0314 99.5959 50.3222 99.9486 50.5843C100.974 51.3379 102.136 51.8834 103.369 52.1906C102.158 51.8374 101.024 51.2592 100.025 50.486C99.716 50.2401 99.4248 49.972 99.154 49.6838C99.5065 49.6242 99.8547 49.5411 100.196 49.4351C100.875 49.2394 101.531 48.9711 102.152 48.6348C102.784 48.2979 103.353 47.8529 103.834 47.3197C104.329 46.7754 104.656 46.098 104.774 45.3702C104.888 44.6254 104.705 43.8656 104.266 43.2549ZM104.396 45.3163C104.286 45.9703 103.993 46.5792 103.55 47.071C103.101 47.5747 102.57 47.9962 101.978 48.3167C101.38 48.6431 100.749 48.9049 100.096 49.0976C99.7 49.225 99.2935 49.3185 98.8814 49.3772C98.4157 48.8298 98.0328 48.2164 97.745 47.5569C97.4939 46.988 97.3376 46.3815 97.2824 45.7617C97.256 45.4567 97.2683 45.1496 97.3189 44.8477C97.361 44.5541 97.4701 44.2743 97.6375 44.0301C97.7174 43.9168 97.8201 43.8215 97.9389 43.7505C98.0001 43.7162 98.0643 43.6878 98.1308 43.6656C98.1985 43.6398 98.2677 43.6185 98.3382 43.602C98.4701 43.5649 98.6083 43.5561 98.7439 43.576C98.8794 43.5959 99.0093 43.6442 99.1251 43.7177C99.3556 43.8878 99.5328 44.1207 99.6358 44.3887C99.7508 44.6658 99.8289 44.9569 99.868 45.2545L100.039 46.6063L100.2 45.2507C100.263 44.5826 100.466 43.9354 100.795 43.3513C100.955 43.0742 101.182 42.8426 101.455 42.6784C101.729 42.5288 102.044 42.4726 102.352 42.5183C102.672 42.5595 102.98 42.6656 103.258 42.83C103.535 42.9944 103.777 43.2137 103.968 43.4747C104.346 44.0082 104.5 44.6698 104.396 45.3163Z" fill="#020202"/>
<path d="M12.6769 78.6868V90.9085H11.58V80.3165L6.25835 90.3534L0.992263 80.4209V90.9085H0.320724V78.6872H1.34186L1.49273 78.9831L6.49733 88.418L11.6861 78.6868H12.6769Z" fill="#020202"/>
<path d="M12.9976 91.2308H11.2593V81.607L6.25841 91.0389L1.31291 81.7111V91.2308H0V78.3651H1.5381L1.77816 78.8367L6.49816 87.7343L11.4941 78.3647H12.9976V91.2308ZM11.9008 90.5864H12.3561V79.0091H11.878L6.49659 89.1017L1.14582 79.0094H0.641422V90.5864H0.671489V79.1306L6.2584 89.6684L11.9008 79.0264V90.5864Z" fill="#020202"/>
<path d="M30.2981 84.8147C30.309 85.927 30.0467 87.0249 29.5344 88.0111C29.0199 88.9843 28.2394 89.7896 27.2847 90.3323C26.2098 90.9291 24.9961 91.2277 23.7683 91.1972C22.3956 91.1972 21.2001 90.9095 20.2158 90.3424C19.2627 89.8065 18.4866 89.002 17.9832 88.0282C17.4924 87.0256 17.2372 85.9232 17.2372 84.8059C17.2372 83.6886 17.4924 82.5862 17.9832 81.5835C18.4877 80.6088 19.2632 79.8023 20.2154 79.262C21.1998 78.6882 22.3952 78.3975 23.7683 78.3975C25.1403 78.3975 26.3354 78.6882 27.3198 79.262C28.2722 79.802 29.0478 80.6086 29.5521 81.5835C30.0559 82.5846 30.3118 83.693 30.2981 84.8147ZM28.3942 81.8652C28.0086 81.0107 27.3907 80.2829 26.6117 79.7655C25.7624 79.2275 24.7729 78.9555 23.7693 78.9841C22.7651 78.9558 21.7752 79.2279 20.9252 79.7658C20.1461 80.2824 19.5287 81.0104 19.1447 81.8652C18.7441 82.7934 18.5374 83.7944 18.5374 84.8061C18.5373 85.8178 18.7439 86.8188 19.1445 87.7471C19.5271 88.6001 20.1448 89.3253 20.9245 89.837C21.7765 90.3697 22.7658 90.6387 23.769 90.6102C24.7716 90.6388 25.7604 90.3698 26.6117 89.837C27.3914 89.3248 28.0095 88.5998 28.3935 87.7471C28.7939 86.8188 29.0005 85.8179 29.0006 84.8062C29.0007 83.7945 28.7943 82.7936 28.3942 81.8652Z" fill="#020202"/>
<path d="M23.7683 91.3055C22.3763 91.3055 21.163 91.0131 20.1622 90.4365C19.191 89.8903 18.4002 89.0704 17.8873 88.078C17.3887 87.06 17.1293 85.9405 17.1293 84.8059C17.1293 83.6713 17.3887 82.5519 17.8873 81.5338C18.4011 80.5407 19.1911 79.7189 20.1613 79.1684C21.1619 78.5849 22.3756 78.2891 23.7683 78.2891C25.1602 78.2891 26.3734 78.5849 27.3739 79.1684C28.3442 79.7187 29.1343 80.5406 29.6479 81.5339C30.1597 82.5502 30.4197 83.6757 30.406 84.8146C30.4169 85.9446 30.1503 87.0599 29.6297 88.0617C29.1058 89.0529 28.311 89.8732 27.3389 90.4261C26.2475 91.0325 25.0151 91.336 23.7683 91.3055ZM23.7683 78.5057C22.414 78.5057 21.2369 78.7918 20.2695 79.3559C19.3351 79.8858 18.5741 80.677 18.079 81.6333C17.5961 82.6206 17.345 83.7059 17.345 84.8059C17.345 85.9059 17.5961 86.9913 18.079 87.9786C18.5729 88.9339 19.3345 89.723 20.2696 90.2486C21.2373 90.8061 22.4144 91.0888 23.7683 91.0888C24.977 91.1192 26.1721 90.8257 27.2306 90.2387C28.1676 89.706 28.9338 88.9157 29.4391 87.9606C29.9431 86.9899 30.2011 85.9094 30.1903 84.8146C30.204 83.7103 29.9522 82.619 29.4563 81.6333C28.9614 80.6768 28.2003 79.8855 27.2657 79.3559C26.2984 78.7918 25.1217 78.5057 23.7683 78.5057ZM23.769 90.7185C22.7449 90.7472 21.7351 90.4722 20.8656 89.9279C20.0688 89.4049 19.4377 88.664 19.0466 87.7924C18.6395 86.8499 18.4295 85.8334 18.4296 84.806C18.4296 83.7786 18.6397 82.7622 19.0468 81.8197C19.4392 80.9466 20.0698 80.2031 20.8657 79.6753C21.7332 79.1256 22.7439 78.8473 23.7692 78.8758C24.7941 78.847 25.8043 79.1252 26.6712 79.6751C27.4669 80.2036 28.0981 80.947 28.4921 81.8197V81.8199C28.8988 82.7625 29.1086 83.7789 29.1085 84.8062C29.1083 85.8335 28.8983 86.8499 28.4914 87.7924C28.0991 88.6636 27.4675 89.4043 26.6708 89.9277C25.802 90.4722 24.7926 90.7473 23.769 90.7185ZM23.7692 79.0924C22.7862 79.0642 21.817 79.33 20.9847 79.856C20.2224 80.3617 19.6184 81.074 19.2428 81.9105C18.8486 82.8245 18.6453 83.81 18.6452 84.8061C18.6452 85.8022 18.8484 86.7877 19.2424 87.7018C19.6168 88.5363 20.221 89.2457 20.9836 89.7465C21.8181 90.2675 22.7869 90.5302 23.769 90.5019C24.7507 90.5304 25.7189 90.2676 26.5527 89.7463C27.3154 89.2452 27.92 88.5359 28.2956 87.7018C28.6894 86.7877 28.8927 85.8023 28.8928 84.8062C28.8929 83.8102 28.6899 82.8246 28.2962 81.9105C27.9189 81.0743 27.3143 80.3622 26.5521 79.8558C25.7204 79.3296 24.7517 79.0639 23.7692 79.0924Z" fill="#020202"/>
<path d="M45.8286 78.6868V90.9075H45.2329L45.2148 90.8295C45.2075 90.7973 44.4165 87.5582 39.8099 84.9883C37.3137 83.6365 35.5118 82.2391 34.4492 80.8315V90.9081H33.7147V78.6868H34.4252L34.4499 78.7506C34.8385 79.7422 36.0918 81.7432 40.1207 84.0068C42.9985 85.6241 44.4068 87.1361 45.0945 88.2043V78.6868H45.8286Z" fill="#020202"/>
<path d="M34.5571 91.0165H33.6069V78.5784H34.4991L34.5505 78.7115C34.9336 79.689 36.1738 81.6651 40.1733 83.9121C42.8636 85.424 44.2641 86.8471 44.9866 87.8542V78.5784H45.9365V91.0157H45.1474L45.1098 90.8542C45.1022 90.8216 44.3073 87.6211 39.7576 85.0832C37.3953 83.8035 35.6475 82.4795 34.5571 81.1436L34.5571 91.0165ZM33.8226 90.7999H34.3414V80.5092L34.5352 80.7661C35.5879 82.1606 37.3798 83.549 39.8612 84.893C44.4293 87.4412 45.2771 90.6316 45.3184 90.799H45.7208V78.795H45.2023V88.5715L45.0039 88.2632C44.3654 87.2711 42.9908 85.7437 40.068 84.1012C36.0166 81.8251 34.7474 79.8015 34.3514 78.795H33.8226V90.7999Z" fill="#020202"/>
<path d="M61.7706 90.9085H60.452L58.9389 87.6281H52.7773C52.5679 87.6293 52.363 87.6899 52.1863 87.8028C52.0095 87.9157 51.868 88.0764 51.778 88.2664L50.5239 90.9085H49.6794L55.7613 78.2466H56.0254L61.1987 89.6484L61.1099 89.6951L61.2012 89.6532L61.7706 90.9085ZM55.7091 80.4405L52.4442 87.0031H58.6181L55.7091 80.4405Z" fill="#020202"/>
<path d="M62.2691 91.2308H60.2471L58.7341 87.9501H52.7773C52.6278 87.9518 52.4817 87.9956 52.3559 88.0768C52.23 88.1579 52.1295 88.273 52.0657 88.4089L50.7262 91.2308H49.1685L55.5599 77.9246H56.2317L61.3596 89.2266L61.3599 89.2263L62.2691 91.2308ZM60.6568 90.5864H61.2719L60.9092 89.7869L61.102 89.6985L61.0998 89.6938L60.9067 89.7822L55.8889 78.7225L50.1902 90.5864H50.3216L51.4885 88.1276C51.588 87.9191 51.7356 87.7376 51.9191 87.598C52.1025 87.4585 52.3165 87.365 52.5432 87.3253H51.9254L55.7259 79.6865L59.1034 87.3058H59.1438L60.6568 90.5864ZM52.963 86.6809H58.1242L55.6924 81.1948L52.963 86.6809Z" fill="#020202"/>
<path d="M79.1063 78.6868V90.9085H77.9026V80.3165L72.0625 90.3534L66.283 80.4209V90.9085H65.5464V78.6872H66.667L66.8326 78.9831L72.3247 88.418L78.019 78.6868H79.1063Z" fill="#020202"/>
<path d="M79.2141 91.0169H77.7948V80.7166L72.0625 90.5682L66.3908 80.8207V91.0169H65.4386V78.5788H66.7301L66.9266 78.93L72.3249 88.2038L77.9573 78.5784H79.2141V91.0169ZM78.0104 90.8003H78.9984V78.795H78.0807L72.3245 88.632L66.604 78.7954H65.6543V90.8003H66.1752V80.0209L72.0625 90.1387L78.0104 79.9164V90.8003Z" fill="#020202"/>
<path d="M95.5238 84.8147C95.5347 85.927 95.2724 87.0249 94.7601 88.0111C94.2456 88.9843 93.4651 89.7896 92.5104 90.3323C91.4355 90.9291 90.2218 91.2277 88.994 91.1972C87.6213 91.1972 86.4258 90.9095 85.4415 90.3424C84.4884 89.8065 83.7123 89.002 83.2089 88.0282C82.7181 87.0256 82.4629 85.9232 82.4629 84.8059C82.4629 83.6886 82.7181 82.5862 83.2089 81.5835C83.7133 80.6088 84.4888 79.8023 85.4411 79.262C86.4255 78.6882 87.6209 78.3975 88.994 78.3975C90.366 78.3975 91.5611 78.6882 92.5455 79.262C93.4979 79.802 94.2735 80.6086 94.7778 81.5835C95.2816 82.5846 95.5375 83.693 95.5238 84.8147ZM93.6199 81.8652C93.2343 81.0107 92.6164 80.2829 91.8374 79.7655C90.9764 79.254 89.9944 78.9841 88.9941 78.9842C87.9938 78.9842 87.0119 79.2541 86.1509 79.7658C85.3718 80.2824 84.7544 81.0104 84.3704 81.8652C83.9698 82.7934 83.7631 83.7944 83.763 84.8061C83.763 85.8178 83.9696 86.8188 84.3702 87.7471C84.7528 88.6001 85.3705 89.3253 86.1502 89.837C87.0131 90.3434 87.9945 90.6102 88.9938 90.6102C89.9931 90.6102 90.9745 90.3434 91.8374 89.837C92.6171 89.3248 93.2352 88.5998 93.6192 87.7471C94.0196 86.8188 94.2262 85.8179 94.2263 84.8062C94.2264 83.7945 94.02 82.7936 93.6199 81.8652V81.8652Z" fill="#020202"/>
<path d="M88.994 91.3055C87.602 91.3055 86.3887 91.0131 85.3879 90.4365C84.4167 89.8903 83.6259 89.0704 83.113 88.078C82.6143 87.06 82.355 85.9405 82.355 84.8059C82.355 83.6713 82.6143 82.5519 83.113 81.5338C83.6268 80.5407 84.4168 79.7189 85.3869 79.1684C86.3876 78.5849 87.6013 78.2891 88.994 78.2891C90.3859 78.2891 91.5991 78.5849 92.5996 79.1684C93.5699 79.7187 94.36 80.5406 94.8736 81.5339C95.3854 82.5502 95.6454 83.6757 95.6317 84.8146C95.6426 85.9446 95.376 87.0599 94.8554 88.0617C94.3315 89.0529 93.5367 89.8732 92.5645 90.4261C91.4732 91.0325 90.2408 91.336 88.994 91.3055ZM88.994 78.5057C87.6397 78.5057 86.4626 78.7918 85.4952 79.3559C84.5608 79.8858 83.7998 80.677 83.3047 81.6333C82.8218 82.6206 82.5707 83.7059 82.5707 84.8059C82.5707 85.9059 82.8218 86.9913 83.3047 87.9786C83.7986 88.9339 84.5602 89.723 85.4953 90.2486C86.463 90.8061 87.6401 91.0888 88.994 91.0888C90.2027 91.1192 91.3977 90.8257 92.4563 90.2387C93.3933 89.706 94.1595 88.9157 94.6648 87.9606C95.1688 86.9899 95.4268 85.9094 95.416 84.8146C95.4297 83.7103 95.1779 82.619 94.682 81.6333C94.1871 80.6768 93.426 79.8855 92.4914 79.3559C91.5241 78.7918 90.3474 78.5057 88.994 78.5057ZM88.9947 90.7185C87.9706 90.7472 86.9608 90.4722 86.0913 89.9279C85.2945 89.4049 84.6634 88.664 84.2723 87.7924C83.8652 86.8499 83.6552 85.8334 83.6553 84.806C83.6553 83.7786 83.8654 82.7622 84.2725 81.8197C84.6649 80.9466 85.2955 80.2031 86.0914 79.6753C86.97 79.152 87.9726 78.8758 88.9941 78.8758C90.0156 78.8757 91.0182 79.1518 91.8969 79.6751C92.6926 80.2036 93.3238 80.947 93.7178 81.8197V81.8199C94.1245 82.7625 94.3343 83.7789 94.3342 84.8062C94.3341 85.8335 94.1241 86.8499 93.7172 87.7924C93.3248 88.6636 92.6932 89.4043 91.8965 89.9276C91.0277 90.4722 90.0183 90.7473 88.9947 90.7185ZM88.9949 79.0924C88.0119 79.0642 87.0427 79.33 86.2104 79.856C85.4481 80.3617 84.8441 81.074 84.4684 81.9105C84.0743 82.8245 83.871 83.81 83.8709 84.8061C83.8709 85.8022 84.0741 86.7877 84.4681 87.7018C84.8425 88.5363 85.4467 89.2457 86.2093 89.7465C87.0547 90.2413 88.0155 90.5019 88.9939 90.5019C89.9722 90.5018 90.9331 90.2411 91.7784 89.7463C92.5411 89.2452 93.1457 88.5359 93.5213 87.7018C93.9151 86.7877 94.1184 85.8023 94.1185 84.8062C94.1186 83.8102 93.9156 82.8246 93.5219 81.9105C93.1446 81.0743 92.54 80.3622 91.7778 79.8558C90.9461 79.3296 89.9774 79.0639 88.9949 79.0924Z" fill="#020202"/>
<path d="M108.726 86.2497C108.726 88.1103 107.941 89.635 106.626 90.3287C105.892 90.7153 104.965 90.9113 103.869 90.9113C103.82 90.9113 103.77 90.9107 103.72 90.91C102.587 90.8922 101.654 90.6744 100.868 90.2447C100.072 89.8279 99.4419 89.1505 99.0816 88.3246C98.8622 87.7385 98.7643 87.1135 98.7939 86.488V78.6873H99.9901V81.3971C99.9901 81.3971 100 84.3943 100 84.9596V86.5896C99.9819 86.972 100.015 87.3551 100.099 87.7286C100.216 88.1378 100.416 88.5184 100.685 88.8468C100.955 89.1752 101.289 89.4443 101.667 89.6375C102.419 90.0443 103.365 90.2178 104.477 90.1518C105.533 90.0894 106.344 89.8031 106.888 89.3008C107.478 88.7303 107.853 87.971 107.946 87.1533C107.989 86.7605 108.005 86.3652 107.992 85.9702L107.99 85.5264V78.6873H108.724L108.726 86.2497Z" fill="#020202"/>
<path d="M103.869 91.0195L103.719 91.0183C102.568 91.0003 101.619 90.7783 100.817 90.3397C99.9992 89.9113 99.3521 89.2153 98.9823 88.367C98.7569 87.7675 98.6561 87.128 98.686 86.4879V78.5789H100.098V81.3971C100.098 81.3967 100.108 84.3943 100.108 84.9595V86.5895C100.09 86.9624 100.122 87.3361 100.203 87.7005C100.316 88.0954 100.509 88.4626 100.77 88.7794C101.03 89.0962 101.353 89.3558 101.718 89.5421C102.453 89.9394 103.378 90.1083 104.47 90.0437C105.501 89.9826 106.29 89.7058 106.815 89.2209C107.387 88.6676 107.749 87.9313 107.839 87.1387C107.881 86.7526 107.896 86.364 107.885 85.9757L107.882 85.5269V78.5789H108.832L108.834 86.2497C108.834 88.1509 108.027 89.7118 106.676 90.4246C105.926 90.8194 104.982 91.0195 103.869 91.0195ZM98.9017 78.7955V86.4879C98.8725 87.0989 98.9675 87.7094 99.1809 88.2823C99.5317 89.0855 100.145 89.7442 100.92 90.1493C101.69 90.5708 102.607 90.784 103.722 90.8016L103.869 90.8029C104.947 90.8029 105.858 90.611 106.576 90.2329C107.854 89.5582 108.618 88.0691 108.618 86.2497L108.616 78.7955H108.097L108.1 85.9695C108.112 86.3696 108.097 86.7699 108.053 87.1677C107.956 88.0104 107.57 88.7929 106.961 89.3804C106.398 89.8999 105.565 90.1959 104.483 90.26C103.351 90.3277 102.386 90.1495 101.616 89.7329C101.225 89.5328 100.88 89.2541 100.601 88.9142C100.322 88.5743 100.115 88.1804 99.9946 87.757C99.9082 87.3747 99.8738 86.9825 99.8922 86.591V84.9595C99.8922 84.3943 99.8823 81.3975 99.8823 81.3975V78.7955H98.9017Z" fill="#020202"/>
<path d="M123.662 89.6886L123.425 89.9861C123.156 90.2833 122.827 90.5193 122.46 90.6781C122.093 90.8369 121.696 90.9149 121.297 90.9068C119.066 90.9068 116.81 88.5988 114.997 86.7444C114.468 86.2027 113.964 85.688 113.513 85.2844V90.9068H112.317V78.6859H117.892C118.611 78.6814 119.318 78.8673 119.943 79.2248C120.559 79.5735 121.073 80.0794 121.432 80.6914C121.789 81.3025 121.978 81.9984 121.978 82.7072C121.978 83.4159 121.789 84.1118 121.432 84.7229C121.073 85.3352 120.559 85.8413 119.943 86.1899C119.318 86.5475 118.611 86.7333 117.892 86.7286L116.361 86.7572C116.735 87.1043 117.086 87.4262 117.363 87.6606L117.621 87.8804C118.947 89.0127 120.2 90.0823 122.001 90.1095C122.449 90.084 122.89 89.9895 123.309 89.8293L123.662 89.6886ZM117.072 79.4495H113.512L113.514 84.1849C114.21 84.7709 114.906 85.4074 115.5 85.9578L116.896 85.951C117.181 85.9519 117.466 85.9313 117.749 85.8895C118.171 85.8304 118.581 85.7038 118.964 85.5145C119.494 85.2576 119.939 84.8533 120.248 84.3496C120.521 83.8815 120.669 83.3503 120.678 82.8076L120.681 82.7159L120.678 82.6077C120.669 82.0652 120.521 81.5342 120.248 81.0662C119.94 80.5621 119.494 80.1576 118.964 79.9008C118.581 79.712 118.171 79.5854 117.749 79.5259C117.656 79.5081 117.564 79.4935 117.471 79.4818L117.471 79.4851C117.425 79.4781 117.377 79.4725 117.33 79.4667C117.245 79.4586 117.159 79.4522 117.072 79.4493L117.072 79.4495Z" fill="#020202"/>
<path d="M121.297 91.0152C119.02 91.0152 116.747 88.6893 114.92 86.8204C114.461 86.3505 114.024 85.9032 113.621 85.5292V91.0152H112.21V78.5777H117.892C118.63 78.5732 119.356 78.7639 119.997 79.1308C120.629 79.4887 121.156 80.0081 121.525 80.6364C121.892 81.2642 122.086 81.9791 122.086 82.7072C122.086 83.4354 121.892 84.1503 121.525 84.7781C121.156 85.4066 120.629 85.9261 119.997 86.2841C119.356 86.6511 118.63 86.8418 117.892 86.837L116.632 86.8606C116.908 87.116 117.199 87.3796 117.432 87.5779L117.69 87.7979C119.002 88.9174 120.241 89.9747 122.003 90.0011H122.005C122.438 89.9755 122.864 89.8838 123.269 89.729L124 89.4373L123.509 90.054C123.23 90.3631 122.888 90.6087 122.506 90.7744C122.125 90.9402 121.712 91.0223 121.297 91.0152ZM113.406 85.0427L113.585 85.2036C114.042 85.6121 114.543 86.1252 115.074 86.6685C116.872 88.5086 119.111 90.7986 121.297 90.7986C121.675 90.8054 122.051 90.7326 122.4 90.5847C122.749 90.4367 123.064 90.2171 123.323 89.9398C122.9 90.0999 122.455 90.1937 122.004 90.2178H122.001C120.16 90.1901 118.893 89.1085 117.551 87.9632L117.293 87.7431C117 87.4943 116.62 87.1454 116.288 86.8369L116.091 86.6541L117.89 86.6203C118.591 86.6252 119.281 86.4443 119.89 86.0958C120.49 85.7564 120.99 85.2638 121.339 84.6678C121.687 84.0734 121.87 83.3966 121.87 82.7072C121.87 82.0178 121.687 81.341 121.339 80.7466C120.99 80.1509 120.49 79.6585 119.89 79.3191C119.281 78.9709 118.592 78.7899 117.892 78.7944H112.425V90.7986H113.406V85.0427ZM115.458 86.0664L115.427 86.0374C114.837 85.4915 114.141 84.8542 113.445 84.2679L113.406 84.2356L113.404 79.3413H117.076C117.165 79.3443 117.253 79.3506 117.34 79.3589C117.363 79.3616 117.385 79.3644 117.406 79.3671L117.485 79.3743C117.58 79.3864 117.674 79.4014 117.769 79.4196C118.201 79.4808 118.621 79.6107 119.012 79.8042C119.561 80.0701 120.022 80.4891 120.34 81.0111C120.623 81.4948 120.776 82.0437 120.786 82.6045L120.789 82.713L120.786 82.8112C120.777 83.3722 120.623 83.9213 120.34 84.4053C120.022 84.9266 119.561 85.3451 119.013 85.6111C118.62 85.8057 118.199 85.9359 117.765 85.9968C117.477 86.0394 117.187 86.0603 116.896 86.0594L115.458 86.0664ZM113.622 84.1344C114.296 84.7042 114.968 85.3182 115.542 85.8493L116.895 85.8427C117.176 85.8435 117.456 85.8235 117.733 85.7826C118.144 85.7252 118.543 85.602 118.915 85.4179C119.427 85.1703 119.857 84.7803 120.155 84.2944C120.419 83.8419 120.562 83.3287 120.57 82.8044L120.573 82.7124L120.57 82.6106C120.562 82.0867 120.419 81.5739 120.155 81.1218C119.857 80.6353 119.427 80.245 118.915 79.9974C118.542 79.8139 118.144 79.6909 117.733 79.6331C117.672 79.6217 117.613 79.6117 117.555 79.6028L117.555 79.6041L117.455 79.5922C117.41 79.5855 117.364 79.58 117.319 79.5745C117.238 79.5669 117.156 79.5607 117.072 79.5578V79.558H113.62L113.622 84.1344Z" fill="#020202"/>
<path d="M53.8082 97.3493C53.808 97.7302 53.6764 98.0992 53.4358 98.3936C53.1951 98.6879 52.8604 98.8894 52.4885 98.9636C52.1166 99.0378 51.7306 98.9801 51.3962 98.8005C51.0619 98.6209 50.7999 98.3304 50.6548 97.9784C50.5098 97.6265 50.4907 97.235 50.6008 96.8705C50.7109 96.506 50.9434 96.1912 51.2587 95.9796C51.574 95.768 51.9525 95.6727 52.3299 95.7101C52.7072 95.7474 53.06 95.915 53.3281 96.1843C53.4831 96.3353 53.6056 96.5165 53.6882 96.7169C53.7708 96.9172 53.8116 97.1325 53.8082 97.3493ZM53.5714 97.3493C53.5716 97.0238 53.4595 96.7083 53.2541 96.4566C53.0487 96.2049 52.7628 96.0325 52.445 95.9688C52.1273 95.9051 51.7974 95.954 51.5116 96.1073C51.2257 96.2606 51.0017 96.5086 50.8775 96.8093C50.7533 97.1099 50.7368 97.4445 50.8306 97.756C50.9245 98.0676 51.123 98.3367 51.3923 98.5177C51.6616 98.6987 51.9851 98.7803 52.3075 98.7486C52.63 98.7168 52.9315 98.5738 53.1607 98.3437C53.2933 98.215 53.3981 98.0603 53.4688 97.8893C53.5394 97.7183 53.5743 97.5345 53.5714 97.3493Z" fill="#020202"/>
<path d="M58.5935 98.8809C58.5935 98.9579 58.5529 98.9965 58.4719 98.9964H55.0572C54.9738 98.9964 54.9321 98.9579 54.9321 98.8809C54.9348 98.852 54.944 98.8242 54.9592 98.7995L56.6497 95.7836C56.6591 95.7604 56.6749 95.7404 56.6952 95.7259C56.7156 95.7115 56.7397 95.7032 56.7646 95.7021C56.789 95.7037 56.8124 95.7122 56.8322 95.7266C56.8519 95.741 56.8671 95.7608 56.8761 95.7836L58.5666 98.7995C58.5817 98.8242 58.5909 98.8521 58.5935 98.8809ZM58.2664 98.7552L56.761 96.0627L55.2555 98.7552H58.2664Z" fill="#020202"/>
<path d="M62.794 98.1099C62.7935 98.1325 62.7878 98.1546 62.7772 98.1745C62.6321 98.4237 62.4248 98.6307 62.1758 98.7748C61.9268 98.919 61.6446 98.9954 61.3572 98.9964C60.9223 98.9964 60.5053 98.8229 60.1978 98.514C59.8903 98.2051 59.7175 97.7861 59.7175 97.3493C59.7175 96.9124 59.8903 96.4935 60.1978 96.1846C60.5053 95.8757 60.9223 95.7021 61.3572 95.7021C61.544 95.7037 61.7292 95.737 61.9049 95.8005C62.0995 95.8759 62.2819 95.9801 62.4459 96.1096C62.6758 96.2863 62.7907 96.4459 62.7906 96.5885C62.7917 96.6087 62.7869 96.6289 62.7767 96.6464C62.7665 96.6639 62.7514 96.6781 62.7333 96.6871L60.2044 98.1541C60.326 98.3279 60.4851 98.472 60.6697 98.5756C60.8543 98.6792 61.0598 98.7397 61.2709 98.7526C61.482 98.7656 61.6932 98.7306 61.889 98.6502C62.0848 98.5699 62.2601 98.4464 62.4018 98.2887C62.4402 98.2369 62.4966 98.158 62.571 98.052C62.5821 98.0349 62.5971 98.0208 62.6147 98.0109C62.6324 98.0009 62.6521 97.9953 62.6724 97.9946C62.7535 97.9946 62.794 98.0331 62.794 98.1099ZM62.5091 96.5425C62.3837 96.3523 62.212 96.1974 62.0103 96.0925C61.8087 95.9876 61.5837 95.9362 61.3567 95.9431C61.1727 95.9429 60.9904 95.9791 60.8203 96.0497C60.6502 96.1202 60.4957 96.2237 60.3654 96.3543C60.2352 96.4849 60.1318 96.64 60.0613 96.8107C59.9907 96.9814 59.9543 97.1644 59.9542 97.3493C59.9536 97.5564 59.9983 97.7611 60.0852 97.9489L62.5091 96.5425Z" fill="#020202"/>
<path d="M66.3928 98.0286C66.3947 98.163 66.3662 98.2962 66.3094 98.418C66.2526 98.5398 66.169 98.647 66.0649 98.7316C65.8582 98.9072 65.5951 99.0014 65.3245 98.9965H64.3745C64.3584 98.9988 64.342 98.9973 64.3266 98.9922C64.3112 98.987 64.2972 98.9783 64.2857 98.9668C64.2743 98.9553 64.2656 98.9412 64.2605 98.9257C64.2554 98.9102 64.2539 98.8938 64.2562 98.8776V95.8211C64.2539 95.805 64.2554 95.7885 64.2605 95.7731C64.2656 95.7576 64.2743 95.7435 64.2857 95.732C64.2972 95.7204 64.3112 95.7117 64.3266 95.7066C64.342 95.7014 64.3584 95.6999 64.3745 95.7022H65.3245C65.5473 95.6989 65.7637 95.7774 65.933 95.9229C66.0275 96.0018 66.1012 96.1028 66.1477 96.217C66.1942 96.3312 66.212 96.4551 66.1997 96.5779C66.1873 96.7006 66.1451 96.8184 66.0768 96.921C66.0085 97.0235 65.9162 97.1076 65.8079 97.1659C65.9828 97.2305 66.1332 97.3483 66.2381 97.503C66.343 97.6577 66.3971 97.8415 66.3928 98.0286ZM65.9668 96.502C65.9674 96.423 65.9493 96.3449 65.914 96.2743C65.8788 96.2037 65.8274 96.1424 65.764 96.0956C65.6398 95.9947 65.4842 95.9408 65.3245 95.9432H64.4929V97.0606H65.3245C65.4842 97.063 65.6398 97.0091 65.764 96.9082C65.8274 96.8615 65.8788 96.8002 65.9141 96.7296C65.9493 96.659 65.9674 96.581 65.9668 96.502H65.9668ZM66.1562 98.0286C66.1568 97.9264 66.1335 97.8254 66.0883 97.7339C66.0431 97.6423 65.9772 97.5627 65.8959 97.5013C65.7347 97.3694 65.5324 97.2988 65.3245 97.3018H64.4929V98.7553H65.3245C65.5318 98.7585 65.7338 98.6893 65.8959 98.5594C65.9775 98.4975 66.0436 98.4172 66.0888 98.325C66.134 98.2328 66.1571 98.1313 66.1562 98.0286Z" fill="#020202"/>
<path d="M69.7854 98.8776C69.7854 98.9092 69.773 98.9394 69.7508 98.9617C69.7286 98.984 69.6985 98.9965 69.6671 98.9965C69.6357 98.9965 69.6056 98.984 69.5834 98.9617C69.5612 98.9394 69.5487 98.9092 69.5487 98.8776V98.555C69.4038 98.7421 69.2044 98.8791 68.9783 98.947C68.7522 99.0148 68.5107 99.0101 68.2874 98.9335C68.0641 98.8568 67.8702 98.7121 67.7327 98.5195C67.5951 98.3269 67.5209 98.0959 67.5202 97.8589C67.5202 97.6215 67.5941 97.3901 67.7315 97.197C67.869 97.0039 68.0631 96.8589 68.2866 96.7821C68.5102 96.7054 68.7521 96.7008 68.9784 96.769C69.2047 96.8372 69.4041 96.9748 69.5487 97.1626V96.8408C69.5472 96.6028 69.4522 96.375 69.2845 96.207C69.1167 96.0389 68.8897 95.9441 68.6528 95.9432C68.4814 95.9467 68.3145 95.9985 68.1711 96.0928C68.0099 96.1925 67.9316 96.2423 67.9361 96.2422C67.9196 96.2446 67.9027 96.243 67.8869 96.2377C67.871 96.2324 67.8566 96.2235 67.8448 96.2116C67.833 96.1997 67.8241 96.1853 67.8188 96.1694C67.8135 96.1534 67.812 96.1365 67.8144 96.1199C67.8155 96.0879 67.8288 96.0575 67.8515 96.0351C67.9533 95.9247 68.0776 95.8379 68.2159 95.7804C68.3542 95.723 68.5033 95.6963 68.6528 95.7022C68.9529 95.7034 69.2403 95.8236 69.4524 96.0367C69.6646 96.2498 69.7843 96.5385 69.7854 96.8399L69.7854 98.8776ZM69.5487 97.8589C69.5501 97.6498 69.4793 97.4467 69.3482 97.2843C69.2172 97.1219 69.0341 97.0102 68.8302 96.9683C68.6263 96.9264 68.4142 96.957 68.2303 97.0547C68.0463 97.1524 67.9017 97.3112 67.8213 97.504C67.741 97.6969 67.7297 97.9118 67.7895 98.112C67.8493 98.3123 67.9764 98.4855 68.1492 98.602C68.322 98.7186 68.5297 98.7713 68.7368 98.7511C68.944 98.731 69.1377 98.6392 69.285 98.4915C69.3697 98.4098 69.4369 98.3115 69.4822 98.2027C69.5276 98.0939 69.5502 97.9768 69.5487 97.8589Z" fill="#020202"/>
<path d="M74.1516 98.1099C74.1511 98.1325 74.1454 98.1546 74.1348 98.1745C73.9897 98.4237 73.7824 98.6307 73.5334 98.7748C73.2844 98.919 73.0022 98.9954 72.7148 98.9964C72.2799 98.9964 71.8629 98.8229 71.5554 98.514C71.2479 98.2051 71.0751 97.7861 71.0751 97.3493C71.0751 96.9124 71.2479 96.4935 71.5554 96.1846C71.8629 95.8757 72.2799 95.7021 72.7148 95.7021C72.9016 95.7037 73.0867 95.737 73.2625 95.8005C73.4571 95.8759 73.6395 95.9801 73.8035 96.1096C74.0333 96.2863 74.1483 96.4459 74.1482 96.5885C74.1493 96.6087 74.1445 96.6289 74.1343 96.6464C74.1241 96.6639 74.109 96.6781 74.0908 96.6871L71.562 98.1541C71.6836 98.3279 71.8426 98.472 72.0273 98.5756C72.2119 98.6792 72.4174 98.7397 72.6285 98.7526C72.8396 98.7656 73.0508 98.7306 73.2466 98.6502C73.4424 98.5699 73.6177 98.4464 73.7594 98.2887C73.7978 98.2369 73.8541 98.158 73.9286 98.052C73.9397 98.0349 73.9547 98.0208 73.9723 98.0109C73.99 98.0009 74.0097 97.9953 74.03 97.9946C74.1111 97.9946 74.1516 98.0331 74.1516 98.1099ZM73.8666 96.5425C73.7413 96.3523 73.5696 96.1974 73.3679 96.0925C73.1663 95.9876 72.9413 95.9362 72.7143 95.9431C72.5302 95.9429 72.348 95.9791 72.1779 96.0497C72.0078 96.1202 71.8533 96.2237 71.723 96.3543C71.5928 96.4849 71.4894 96.64 71.4189 96.8107C71.3483 96.9814 71.3119 97.1644 71.3118 97.3493C71.3112 97.5564 71.3559 97.7611 71.4428 97.9489L73.8666 96.5425Z" fill="#020202"/>
<path d="M79.3158 98.8809C79.3158 98.9579 79.275 98.9965 79.1935 98.9964C79.1668 98.9979 79.1406 98.9894 79.1199 98.9725C79.0992 98.9556 79.0855 98.9315 79.0814 98.905L78.4022 96.1689L77.4124 98.2288C77.4045 98.2536 77.3893 98.2754 77.3688 98.2913C77.3482 98.3071 77.3233 98.3162 77.2974 98.3173C77.2712 98.316 77.2459 98.3069 77.2249 98.2911C77.2038 98.2754 77.1879 98.2537 77.1791 98.2288L76.1924 96.1687L75.5101 98.905C75.5067 98.9318 75.4931 98.9563 75.4722 98.9733C75.4513 98.9903 75.4247 98.9986 75.3979 98.9964C75.3164 98.9964 75.2757 98.9579 75.2757 98.8809C75.2757 98.872 75.5292 97.8498 76.0363 95.8141C76.0543 95.7394 76.0936 95.7021 76.1541 95.7021C76.1796 95.703 76.2042 95.7116 76.2247 95.7268C76.2451 95.7421 76.2605 95.7632 76.2687 95.7874L77.2959 97.9244L78.3227 95.7874C78.3304 95.7636 78.3452 95.7427 78.3651 95.7275C78.3849 95.7123 78.4088 95.7034 78.4338 95.7021C78.4966 95.7021 78.5382 95.7395 78.5584 95.8141C79.0633 97.8497 79.3158 98.872 79.3158 98.8809Z" fill="#020202"/>
<path d="M85.6038 96.2658C85.6062 96.2824 85.6046 96.2994 85.5994 96.3153C85.5941 96.3312 85.5852 96.3457 85.5734 96.3576C85.5616 96.3694 85.5471 96.3784 85.5313 96.3837C85.5154 96.389 85.4986 96.3905 85.482 96.3881C85.3765 96.3052 85.2646 96.2309 85.1474 96.1657C84.9267 96.0221 84.6698 95.9449 84.4069 95.9431C84.2229 95.9428 84.0406 95.9789 83.8705 96.0493C83.7003 96.1198 83.5457 96.2233 83.4154 96.3539C83.2851 96.4846 83.1818 96.6397 83.1113 96.8105C83.0407 96.9812 83.0045 97.1643 83.0045 97.3492C83.0045 97.5341 83.0407 97.7171 83.1113 97.8879C83.1818 98.0587 83.2851 98.2138 83.4154 98.3444C83.5457 98.475 83.7003 98.5785 83.8705 98.649C84.0406 98.7195 84.2229 98.7556 84.4069 98.7552C84.6698 98.7536 84.9267 98.6764 85.1474 98.5329C85.2645 98.4694 85.3754 98.3949 85.4787 98.3105C85.4952 98.3081 85.512 98.3096 85.5279 98.3149C85.5437 98.3202 85.5581 98.3291 85.5699 98.341C85.5818 98.3528 85.5907 98.3672 85.5959 98.3832C85.6012 98.3991 85.6028 98.416 85.6004 98.4326C85.5993 98.4647 85.586 98.4951 85.5632 98.5176C85.4159 98.676 85.2364 98.8008 85.0369 98.8834C84.8374 98.966 84.6226 99.0046 84.407 98.9964C83.9721 98.9964 83.555 98.8229 83.2475 98.514C82.94 98.2051 82.7673 97.7861 82.7673 97.3493C82.7673 96.9124 82.94 96.4935 83.2475 96.1846C83.555 95.8757 83.9721 95.7021 84.407 95.7021C84.6234 95.6944 84.8389 95.7334 85.039 95.8166C85.239 95.8998 85.419 96.0252 85.5666 96.1843C85.5888 96.2058 85.6021 96.2349 85.6038 96.2658Z" fill="#020202"/>
<path d="M92.7203 98.8809C92.7203 98.9579 92.6785 98.9965 92.5949 98.9965C92.5744 98.9968 92.5543 98.9913 92.5369 98.9805C92.5194 98.9697 92.5055 98.9541 92.4966 98.9355L90.8878 96.0633L89.2791 98.9355C89.2703 98.954 89.2563 98.9696 89.2389 98.9804C89.2215 98.9912 89.2013 98.9968 89.1809 98.9965C89.0973 98.9965 89.0555 98.9579 89.0555 98.8809C89.0558 98.8594 89.0616 98.8383 89.0724 98.8198L90.7729 95.7836C90.7814 95.7598 90.797 95.7391 90.8175 95.7246C90.8381 95.71 90.8627 95.7021 90.8879 95.7021C90.9131 95.7021 90.9376 95.71 90.9582 95.7246C90.9788 95.7391 90.9944 95.7598 91.0028 95.7836L92.7033 98.8198C92.7141 98.8384 92.7199 98.8594 92.7203 98.8809Z" fill="#020202"/>
<path d="M98.645 97.3495C98.6519 97.5686 98.6134 97.7869 98.532 97.9903C98.4505 98.1938 98.3278 98.378 98.1718 98.5313C97.8561 98.8233 97.4447 98.9888 97.0156 98.9963C96.5866 99.0039 96.1697 98.8529 95.844 98.5722C95.535 98.2862 95.3499 97.8899 95.3286 97.4684H94.4191V98.8777C94.4191 98.9092 94.4067 98.9394 94.3845 98.9617C94.3623 98.984 94.3322 98.9966 94.3008 98.9966C94.2694 98.9966 94.2393 98.984 94.2172 98.9617C94.195 98.9394 94.1825 98.9092 94.1825 98.8777V95.8212C94.1824 95.7897 94.1948 95.7594 94.217 95.7371C94.2391 95.7148 94.2692 95.7022 94.3006 95.7021C94.332 95.7021 94.3621 95.7146 94.3843 95.7368C94.4065 95.7591 94.4191 95.7893 94.4191 95.8208V97.2272H95.3286C95.3507 96.807 95.5358 96.4123 95.844 96.1276C96.1695 95.8464 96.5864 95.6952 97.0155 95.7026C97.4446 95.7099 97.8561 95.8754 98.1718 96.1676C98.3278 96.3209 98.4505 96.5051 98.532 96.7086C98.6134 96.912 98.6519 97.1303 98.645 97.3495ZM98.4084 97.3495C98.4144 97.1622 98.3816 96.9758 98.3121 96.802C98.2425 96.6282 98.1378 96.4708 98.0044 96.3398C97.7254 96.0847 97.3616 95.9433 96.9843 95.9433C96.6069 95.9433 96.2432 96.0847 95.9641 96.3398C95.7039 96.6109 95.5585 96.9728 95.5585 97.3495C95.5585 97.7261 95.7039 98.088 95.9641 98.3591C96.2432 98.6141 96.607 98.7554 96.9843 98.7554C97.3616 98.7554 97.7253 98.6141 98.0044 98.3591C98.1378 98.2282 98.2425 98.0708 98.3121 97.8969C98.3816 97.7231 98.4144 97.5367 98.4084 97.3495Z" fill="#020202"/>
<path d="M103.049 94.2944C103.051 94.3106 103.05 94.3272 103.045 94.3429C103.039 94.3585 103.031 94.3727 103.019 94.3844C103.008 94.3961 102.994 94.405 102.978 94.4103C102.963 94.4156 102.946 94.4172 102.93 94.415C102.358 94.415 101.798 94.5836 101.321 94.8999C100.843 95.2162 100.468 95.6664 100.242 96.1946C100.509 95.9239 100.861 95.7547 101.238 95.7157C101.615 95.6767 101.994 95.7704 102.31 95.9808C102.626 96.1912 102.859 96.5053 102.97 96.8694C103.081 97.2334 103.063 97.625 102.919 97.9771C102.775 98.3292 102.513 98.62 102.179 98.8C101.845 98.9799 101.459 99.0378 101.087 98.9637C100.715 98.8896 100.381 98.6881 100.14 98.3937C99.8999 98.0993 99.7687 97.7302 99.7691 97.3494C99.7696 96.5074 100.103 95.6999 100.696 95.1045C101.288 94.5091 102.092 94.1743 102.93 94.1738C102.946 94.1716 102.963 94.1732 102.978 94.1785C102.994 94.1839 103.008 94.1927 103.019 94.2044C103.031 94.2161 103.039 94.2303 103.044 94.2459C103.05 94.2616 103.051 94.2781 103.049 94.2944ZM102.812 97.3494C102.812 97.0239 102.7 96.7084 102.494 96.4567C102.289 96.205 102.003 96.0326 101.685 95.9689C101.368 95.9052 101.038 95.9541 100.752 96.1074C100.466 96.2607 100.242 96.5087 100.118 96.8094C99.9937 97.11 99.9771 97.4446 100.071 97.7561C100.165 98.0677 100.363 98.3368 100.633 98.5178C100.902 98.6988 101.225 98.7804 101.548 98.7487C101.87 98.7169 102.172 98.5739 102.401 98.3438C102.534 98.2151 102.638 98.0604 102.709 97.8894C102.78 97.7183 102.815 97.5346 102.812 97.3494Z" fill="#020202"/>
<path d="M107.452 97.3493C107.452 97.7302 107.32 98.0992 107.08 98.3936C106.839 98.6879 106.504 98.8894 106.132 98.9636C105.76 99.0378 105.374 98.9801 105.04 98.8005C104.706 98.6209 104.444 98.3304 104.299 97.9784C104.154 97.6265 104.135 97.235 104.245 96.8705C104.355 96.506 104.587 96.1912 104.903 95.9796C105.218 95.768 105.596 95.6727 105.974 95.7101C106.351 95.7474 106.704 95.915 106.972 96.1843C107.127 96.3353 107.249 96.5165 107.332 96.7169C107.415 96.9172 107.455 97.1325 107.452 97.3493ZM107.215 97.3493C107.215 97.0238 107.103 96.7083 106.898 96.4566C106.693 96.2049 106.407 96.0325 106.089 95.9688C105.771 95.9051 105.441 95.954 105.155 96.1073C104.87 96.2606 104.645 96.5086 104.521 96.8093C104.397 97.1099 104.381 97.4445 104.474 97.756C104.568 98.0676 104.767 98.3367 105.036 98.5177C105.305 98.6987 105.629 98.7803 105.951 98.7486C106.274 98.7168 106.575 98.5738 106.805 98.3437C106.937 98.215 107.042 98.0603 107.113 97.8893C107.183 97.7183 107.218 97.5345 107.215 97.3493Z" fill="#020202"/>
<path d="M111.051 98.0286C111.053 98.163 111.024 98.2962 110.967 98.418C110.91 98.5398 110.827 98.647 110.723 98.7316C110.516 98.9072 110.253 99.0014 109.982 98.9965H109.032C109.016 98.9988 109 98.9973 108.984 98.9922C108.969 98.987 108.955 98.9783 108.944 98.9668C108.932 98.9553 108.923 98.9412 108.918 98.9257C108.913 98.9102 108.912 98.8938 108.914 98.8776V95.8211C108.912 95.805 108.913 95.7885 108.918 95.7731C108.923 95.7576 108.932 95.7435 108.944 95.732C108.955 95.7204 108.969 95.7117 108.984 95.7066C109 95.7014 109.016 95.6999 109.032 95.7022H109.982C110.205 95.6989 110.422 95.7774 110.591 95.9229C110.685 96.0018 110.759 96.1028 110.806 96.217C110.852 96.3312 110.87 96.4551 110.858 96.5779C110.845 96.7006 110.803 96.8184 110.735 96.921C110.666 97.0235 110.574 97.1076 110.466 97.1659C110.641 97.2305 110.791 97.3483 110.896 97.503C111.001 97.6577 111.055 97.8415 111.051 98.0286ZM110.625 96.502C110.625 96.423 110.607 96.3449 110.572 96.2743C110.537 96.2037 110.485 96.1424 110.422 96.0956C110.298 95.9947 110.142 95.9408 109.982 95.9432H109.151V97.0606H109.982C110.142 97.063 110.298 97.0091 110.422 96.9082C110.485 96.8615 110.537 96.8002 110.572 96.7296C110.607 96.659 110.625 96.581 110.625 96.502ZM110.814 98.0286C110.815 97.9264 110.791 97.8254 110.746 97.7339C110.701 97.6423 110.635 97.5627 110.554 97.5013C110.392 97.3694 110.19 97.2988 109.982 97.3018H109.151V98.7553H109.982C110.19 98.7585 110.392 98.6893 110.554 98.5594C110.635 98.4975 110.701 98.4172 110.747 98.325C110.792 98.2328 110.815 98.1313 110.814 98.0286Z" fill="#020202"/>
<path d="M114.649 98.0287C114.651 98.1631 114.623 98.2963 114.566 98.4181C114.509 98.5399 114.426 98.6471 114.322 98.7317C114.116 98.9092 113.852 99.0046 113.581 99L112.631 98.9966C112.615 98.9989 112.599 98.9974 112.583 98.9923C112.568 98.9871 112.554 98.9784 112.542 98.9669C112.531 98.9553 112.522 98.9413 112.517 98.9258C112.512 98.9103 112.511 98.8939 112.513 98.8777V95.8212C112.513 95.8056 112.516 95.7901 112.522 95.7756C112.528 95.7611 112.536 95.748 112.547 95.7369C112.558 95.7258 112.571 95.717 112.586 95.711C112.6 95.705 112.616 95.7019 112.631 95.7019C112.647 95.7019 112.662 95.705 112.677 95.711C112.691 95.717 112.704 95.7258 112.715 95.7369C112.726 95.748 112.735 95.7611 112.741 95.7756C112.747 95.7901 112.75 95.8056 112.75 95.8212V97.0607H113.581C113.852 97.056 114.116 97.1516 114.322 97.3292C114.425 97.4132 114.509 97.5198 114.566 97.641C114.622 97.7622 114.651 97.8947 114.649 98.0287ZM114.413 98.0287C114.413 97.9265 114.39 97.8255 114.345 97.734C114.3 97.6424 114.234 97.5628 114.153 97.5014C113.991 97.3695 113.789 97.2989 113.581 97.3019H112.75V98.7588H113.581C113.789 98.7625 113.992 98.6919 114.153 98.5595C114.235 98.4979 114.301 98.4177 114.346 98.3254C114.391 98.2332 114.414 98.1315 114.413 98.0287Z" fill="#020202"/>
<path d="M120.574 97.3495C120.581 97.5686 120.543 97.7869 120.461 97.9903C120.38 98.1938 120.257 98.378 120.101 98.5313C119.785 98.8233 119.374 98.9888 118.945 98.9963C118.516 99.0039 118.099 98.8529 117.773 98.5722C117.464 98.2862 117.279 97.8899 117.258 97.4684H116.348V98.8777C116.348 98.8933 116.345 98.9088 116.339 98.9232C116.333 98.9376 116.325 98.9507 116.314 98.9617C116.303 98.9728 116.29 98.9815 116.275 98.9875C116.261 98.9935 116.246 98.9966 116.23 98.9966C116.214 98.9966 116.199 98.9935 116.185 98.9875C116.17 98.9815 116.157 98.9728 116.146 98.9617C116.135 98.9507 116.127 98.9376 116.121 98.9232C116.115 98.9088 116.112 98.8933 116.112 98.8777V95.8212C116.112 95.7897 116.124 95.7594 116.146 95.7371C116.168 95.7148 116.198 95.7022 116.23 95.7021C116.261 95.7021 116.291 95.7146 116.313 95.7368C116.336 95.7591 116.348 95.7893 116.348 95.8208V97.2272H117.258C117.28 96.807 117.465 96.4123 117.773 96.1276C118.099 95.8464 118.516 95.6952 118.945 95.7026C119.374 95.7099 119.785 95.8754 120.101 96.1676C120.257 96.3209 120.38 96.5051 120.461 96.7086C120.543 96.912 120.581 97.1303 120.574 97.3495ZM120.338 97.3495C120.344 97.1622 120.311 96.9758 120.241 96.802C120.172 96.6282 120.067 96.4708 119.934 96.3398C119.655 96.0847 119.291 95.9433 118.913 95.9433C118.536 95.9433 118.172 96.0847 117.893 96.3398C117.633 96.6109 117.488 96.9728 117.488 97.3495C117.488 97.7261 117.633 98.088 117.893 98.3591C118.172 98.6141 118.536 98.7554 118.913 98.7554C119.291 98.7554 119.654 98.6141 119.934 98.3591C120.067 98.2282 120.172 98.0708 120.241 97.8969C120.311 97.7231 120.344 97.5367 120.338 97.3495H120.338Z" fill="#020202"/>
</svg>
